<?xml version="1.0" encoding="UTF-8" standalone="no"?>
<!-- Created with Inkscape (http://www.inkscape.org/) -->

<svg
   version="1.1"
   id="svg1"
   width="320.69037"
   height="359.79645"
   viewBox="0 0 320.69037 359.79645"
   sodipodi:docname="unnamed.jpg"
   xmlns:inkscape="http://www.inkscape.org/namespaces/inkscape"
   xmlns:sodipodi="http://sodipodi.sourceforge.net/DTD/sodipodi-0.dtd"
   xmlns="http://www.w3.org/2000/svg"
   xmlns:svg="http://www.w3.org/2000/svg">
  <defs
     id="defs1" />
  <sodipodi:namedview
     id="namedview1"
     pagecolor="#ffffff"
     bordercolor="#000000"
     borderopacity="0.25"
     inkscape:showpageshadow="2"
     inkscape:pageopacity="0.0"
     inkscape:pagecheckerboard="0"
     inkscape:deskcolor="#d1d1d1">
    <inkscape:page
       x="0"
       y="0"
       width="320.69037"
       height="359.79645"
       id="page2"
       margin="0"
       bleed="0" />
  </sodipodi:namedview>
  <g
     inkscape:groupmode="layer"
     inkscape:label="Image"
     id="g1"
     transform="translate(-491.48169,-391.40277)">
    <g
       id="g311"
       transform="translate(139.28816,55.273084)"
       inkscape:export-filename=".svg"
       inkscape:export-xdpi="96"
       inkscape:export-ydpi="96">
      <path
         style="fill:#d19d8a"
         d="m 495,597.59684 c -15.56659,-7.3836 -31.71182,-14.88351 -57.25,-26.59421 L 424,564.69747 v -9.8132 -9.8132 l 4.25,1.85352 c 2.3375,1.01943 19.1,8.70797 37.25,17.08566 18.15,8.37768 36.01291,16.60338 39.69536,18.27934 l 6.69536,3.04719 12.30464,-5.6104 c 6.76755,-3.08572 19.23108,-8.79756 27.69673,-12.69297 8.46564,-3.89541 15.58174,-6.89291 15.81354,-6.66111 0.37187,0.37186 -20.1134,10.6277 -21.22804,10.6277 -0.24153,0 -4.3853,1.86053 -9.20837,4.13451 -4.82307,2.27398 -12.51389,5.86818 -17.09071,7.98709 l -8.3215,3.85258 -10.28792,-4.98709 C 495.91072,579.24419 490.98042,577 490.61285,577 c -0.36757,0 -3.91833,-1.6264 -7.89058,-3.61423 -7.02141,-3.51371 -16.8176,-8.03374 -39.97227,-18.44348 -6.1875,-2.78173 -12.55664,-5.70673 -14.15364,-6.5 -1.597,-0.79326 -3.07702,-1.44229 -3.28893,-1.44229 -0.21191,0 -0.25528,3.89887 -0.0964,8.66416 l 0.28893,8.66416 17.5,7.93139 c 9.625,4.36227 19.3,8.66031 21.5,9.55119 2.2,0.89089 9.625,4.38312 16.5,7.76053 6.875,3.3774 13.625,6.48918 15,6.91506 1.375,0.42588 5.07467,2.06565 8.22148,3.64392 7.72419,3.87404 8.27516,3.7922 23.75218,-3.52797 13.96913,-6.60698 19.1027,-8.98348 39.52634,-18.29803 6.6,-3.01005 16.3875,-7.54079 21.75,-10.06831 l 9.75,-4.5955 v -7.76128 c 0,-9.30949 -0.0492,-9.35164 -7,-5.99609 -11.72583,5.66076 -22.22243,10.22767 -22.61198,9.83813 C 568.81857,559.15191 596.76921,546 598.54887,546 599.71349,546 600,547.84454 600,555.34231 v 9.3423 l -7.75,3.60317 c -4.2625,1.98175 -19.9,9.20919 -34.75,16.06099 -14.85,6.8518 -30.94566,14.30133 -35.76814,16.55452 -10.87273,5.08003 -8.40826,5.38486 -26.73186,-3.30645 z M 506,577.5 c -5.60559,-3.00164 -4.81628,-3.19097 1.55449,-0.37287 3.88099,1.71674 5.17292,1.89969 6.69641,0.94826 1.03822,-0.64839 5.79399,-2.90649 10.56839,-5.01801 4.77439,-2.11152 18.58071,-8.44171 30.68071,-14.06709 12.1,-5.62539 26.725,-12.32921 32.5,-14.89739 l 10.5,-4.6694 0.29044,-8.21175 c 0.37322,-10.55201 2.73581,-10.80083 -26.29044,2.7688 -15.64056,7.31189 -21.85,10.00278 -22.22254,9.63024 -0.22305,-0.22305 1.98578,-1.53035 4.9085,-2.90512 13.25493,-6.23476 36.71217,-17.09193 40.5988,-18.79113 l 4.28475,-1.87326 -0.28475,10.06828 L 599.5,540.17784 577,550.45706 c -12.375,5.65357 -31.89381,14.61355 -43.37513,19.91108 C 510.11526,581.21556 512.02035,580.72373 506,577.5 Z m -12.5,-5.54252 c -6.34891,-3.05718 -12.1252,-5.73384 -35.5,-16.45026 -26.98696,-12.37244 -30.01297,-13.82758 -29.60443,-14.23612 0.22428,-0.22428 8.43953,3.26833 18.25611,7.76136 37.62522,17.22101 52.88196,24.35197 53.79832,25.14519 1.79809,1.55648 -0.89077,0.69753 -6.95,-2.22017 z M 406,570.02879 c 0,-0.53416 1.29408,-4.51708 2.87574,-8.85093 2.66859,-7.3121 2.76546,-8.06149 1.34473,-10.40297 -1.00461,-1.65569 -1.24026,-3.1682 -0.68537,-4.39907 0.72098,-1.59931 0.90432,-1.43359 1.24375,1.12418 0.21897,1.65 0.83739,3.53116 1.37428,4.18036 0.65403,0.79083 0.23409,3.34264 -1.27251,7.73263 -2.58233,7.52447 -2.65876,7.29926 2.61938,7.71785 4.55258,0.36105 4.59211,0.18328 1.93706,-8.71125 -1.09614,-3.67213 -1.24257,-5.80093 -0.52826,-7.67973 0.54355,-1.42962 0.76623,-4.31844 0.49485,-6.41959 l -0.49341,-3.82027 1.50717,3.98308 c 1.34588,3.55683 1.34403,4.23207 -0.0173,6.30977 -1.39916,2.1354 -1.30535,2.98474 1.14096,10.33034 3.0298,9.09767 2.92402,9.53603 -1.88171,7.79826 -2.99558,-1.08322 -3.85181,-1.02535 -6.03968,0.4082 C 406.68649,571.25152 406,571.38412 406,570.02879 Z m 92.5,-14.048 C 493,553.2889 481.525,547.86684 473,543.93177 464.475,539.9967 450.92051,533.67725 442.87891,529.88855 434.83731,526.09985 427.52481,523 426.62891,523 c -2.08038,0 -2.41323,14.80988 -0.37891,16.85925 1.00225,1.00966 0.90315,1.12719 -0.5,0.59301 C 424.19124,539.85883 422.83135,520 424.34947,520 c 0.19221,0 5.92971,2.64339 12.75,5.87419 6.82029,3.23081 14.42553,6.79515 16.90053,7.92076 2.475,1.12561 16.17007,7.48223 30.4335,14.12581 30.77442,14.33403 25.31565,13.86227 46.45758,4.01501 9.52259,-4.43533 17.52152,-7.85651 17.7754,-7.60263 1.02179,1.02179 -34.43026,16.68109 -37.59178,16.60443 -1.41609,-0.0343 -7.0747,-2.26489 -12.5747,-4.95678 z m 7.9693,-2.75496 c -4.11734,-2.09845 -33.97753,-16.03079 -68.2193,-31.83014 -9.38153,-4.3287 -9.28532,-4.42988 4,-4.20672 l 11.25,0.18897 -9,0.56103 -9,0.56103 4,2.14025 c 2.2,1.17713 12.55,6.06562 23,10.8633 10.45,4.79768 23.61755,10.91174 29.26121,13.58678 18.74751,8.88615 20.01894,9.33087 22.9102,8.01352 1.42288,-0.6483 2.74824,-1.01753 2.94526,-0.82051 2.41986,2.41986 -6.73067,3.19352 -11.14737,0.94249 z m 22.55596,-6.54501 c 10.98503,-5.40713 32.65686,-15.52987 53.97474,-25.21117 6.875,-3.12221 17.61443,-8.13218 23.86539,-11.13327 6.25096,-3.00109 13.45096,-6.29553 16,-7.32097 2.54904,-1.02544 7.45428,-3.2484 10.90054,-4.93992 3.44626,-1.69152 6.74626,-3.07549 7.33333,-3.07549 2.08263,0 0.18801,-2.51346 -3.18061,-4.2195 -5.48109,-2.77591 -26.63487,-12.633 -36.41865,-16.97011 -4.95,-2.19431 -11.25,-5.04526 -14,-6.33543 -16.86441,-7.91204 -63.06832,-29.17263 -68.64055,-31.58475 l -6.64055,-2.87458 -4.85945,2.07415 c -6.62514,2.8278 -9.40892,4.07798 -19.85945,8.91878 -4.95,2.29289 -11.025,5.08417 -13.5,6.20285 -2.475,1.11868 -8.55,3.94305 -13.5,6.27638 -4.95,2.33334 -17.1,7.95147 -27,12.48473 -9.9,4.53327 -24.66143,11.34397 -32.80318,15.1349 C 392.55508,487.89834 385.52268,491 385.06927,491 c -4.94275,0 -2.68844,3.28733 4.50111,6.56372 13.37699,6.09609 20.42533,9.62032 20.9553,10.47783 0.2804,0.45369 -6.92981,-2.60342 -16.02268,-6.79358 -9.09288,-4.19016 -16.18836,-7.90822 -15.76775,-8.26235 0.42061,-0.35414 13.81475,-6.63619 29.76475,-13.96012 28.35667,-13.02082 66.53283,-30.70238 81.5,-37.74729 24.37643,-11.47377 19.3658,-11.5399 45.35401,0.59857 11.6303,5.43223 40.94599,18.98418 65.14599,30.11544 24.2,11.13126 44.34451,20.55371 44.76557,20.93879 0.42106,0.38507 -2.50394,2.21818 -6.5,4.07357 -3.99606,1.85539 -11.99057,5.58351 -17.76557,8.28471 -5.775,2.7012 -17.25,7.96144 -25.5,11.68942 -8.25,3.72798 -21.75,9.93023 -30,13.78279 -37.06546,17.3087 -45.65126,21.23404 -46.30318,21.16932 -0.38325,-0.038 4.03955,-2.40055 9.82844,-5.25 z M 411.41127,527 c 0,-9.625 0.14998,-13.5625 0.3333,-8.75 0.18331,4.8125 0.18331,12.6875 0,17.5 -0.18332,4.8125 -0.3333,0.875 -0.3333,-8.75 z m 2.98612,-1 c 0,-7.975 0.1553,-11.2375 0.34512,-7.25 0.18981,3.9875 0.18981,10.5125 0,14.5 -0.18982,3.9875 -0.34512,0.725 -0.34512,-7.25 z m 40.47063,-10.33205 c 0.75242,-0.91151 1.11509,-2.62452 0.80595,-3.80667 -0.38517,-1.47292 -0.23831,-1.82562 0.46664,-1.12067 1.43298,1.43298 0.67161,5.50054 -1.14061,6.09368 -1.2844,0.42039 -1.30337,0.25274 -0.13198,-1.16634 z m -38.99745,-5.94067 c 0.42618,-0.42499 9.29214,-0.64903 19.70215,-0.49786 l 18.92728,0.27485 -19.70214,0.49786 c -10.83618,0.27383 -19.35346,0.15015 -18.92729,-0.27485 z"
         id="path319" />
      <path
         style="fill:#f69251"
         d="m 505,600.49998 c -2.475,-1.3253 -6.075,-2.9479 -8,-3.60577 -1.925,-0.65786 -9.125,-3.95628 -16,-7.32982 -6.875,-3.37353 -14.3,-6.8626 -16.5,-7.75349 -2.2,-0.89088 -11.875,-5.18892 -21.5,-9.55119 l -17.5,-7.93139 -0.28893,-8.66416 C 425.05215,550.89887 425.09552,547 425.30743,547 c 0.21191,0 1.69193,0.64903 3.28893,1.44229 1.597,0.79327 8.07864,3.768 14.40364,6.61052 22.78919,10.2417 32.62296,14.78026 39.72227,18.33296 3.97225,1.98783 7.52301,3.61423 7.89058,3.61423 0.36757,0 5.29787,2.24419 10.95624,4.98709 l 10.28792,4.98709 8.3215,-3.85258 c 4.57682,-2.11891 12.26764,-5.71311 17.09071,-7.98709 4.82307,-2.27398 8.97685,-4.13451 9.23062,-4.13451 0.25377,0 5.98262,-2.64433 12.73078,-5.87628 6.74816,-3.23195 15.64438,-7.38803 19.76938,-9.23572 4.125,-1.84769 9.975,-4.55205 13,-6.00969 6.95125,-3.34956 7,-3.30777 7,6.00101 v 7.76128 l -9.75,4.5955 c -5.3625,2.52752 -15.15,7.05826 -21.75,10.06831 -20.42364,9.31455 -25.55721,11.69105 -39.52634,18.29803 -15.01385,7.10111 -16.51531,7.35583 -22.97366,3.89754 z m 5,-22.23035 c -0.825,-0.31486 -5.775,-2.57431 -11,-5.021 -17.69967,-8.28816 -34.43769,-15.99362 -52.5,-24.16872 -9.9,-4.4808 -18.675,-8.51676 -19.5,-8.96881 C 424.65417,538.82574 424.27356,523 426.58847,523 c 0.91814,0 8.24884,3.09682 16.29044,6.88183 8.0416,3.78501 20.69609,9.69606 28.12109,13.13568 7.425,3.43962 19.06014,8.8928 25.85588,12.11817 16.19503,7.68645 13.03866,8.30067 51.48213,-10.01819 7.06091,-3.36462 13.0147,-6.11749 13.23065,-6.11749 0.21595,0 4.11384,-1.75983 8.66199,-3.91073 31.26267,-14.7847 28.93439,-14.46859 28.55979,-3.87752 L 598.5,539.4235 588,544.0929 c -5.775,2.56818 -20.4,9.272 -32.5,14.89739 -12.1,5.62538 -26.05,12.01173 -31,14.19189 -4.95,2.18015 -9.4275,4.38104 -9.95,4.89087 -1.04254,1.01725 -2.26167,1.06992 -4.55,0.19658 z m -97.25,-11.06528 c -4.34044,-0.37626 -4.44021,-0.847 -1.74191,-8.21847 1.10445,-3.01723 1.69843,-6.16088 1.31996,-6.98588 -0.37847,-0.825 -0.55662,-10.32274 -0.39588,-21.10608 0.37419,-25.10364 2.437,-22.02903 -22.36179,-33.3302 C 382.38083,494.28733 380.12652,491 385.06927,491 c 0.45341,0 7.48581,-3.10166 15.62755,-6.89258 8.14175,-3.79093 22.90318,-10.60163 32.80318,-15.1349 9.9,-4.53326 22.05,-10.15139 27,-12.48473 4.95,-2.33333 11.025,-5.1577 13.5,-6.27638 2.475,-1.11868 8.55,-3.90996 13.5,-6.20285 10.45053,-4.8408 13.23431,-6.09098 19.85945,-8.91878 l 4.85945,-2.07415 6.64055,2.87458 c 5.57223,2.41212 51.77614,23.67271 68.64055,31.58475 2.75,1.29017 9.05,4.14112 14,6.33543 9.78378,4.33711 30.93756,14.1942 36.41865,16.97011 3.36862,1.70604 5.26324,4.2195 3.18061,4.2195 -0.58707,0 -3.88707,1.38397 -7.33333,3.07549 -3.44626,1.69152 -8.3515,3.91448 -10.90054,4.93992 -2.54904,1.02544 -9.74904,4.3197 -16,7.32058 -6.25096,3.00088 -16.54039,7.80176 -22.86539,10.66863 -13.0877,5.93214 -32.37101,14.89552 -55.13041,25.62602 -19.06358,8.98802 -14.40332,9.22163 -37.86959,-1.89832 -4.125,-1.95471 -17.83216,-8.32379 -30.46036,-14.15353 C 433.09415,517.90875 433.21606,518 443.7349,518 c 12.02247,0 18.15652,-4.31182 11.33084,-7.96482 -3.9389,-2.10803 -38.84072,-1.32414 -40.03056,0.89908 -1.31036,2.44843 -1.35344,25.1146 -0.0607,31.93124 0.63877,3.36823 0.63298,6.03673 -0.0168,7.74582 -0.67203,1.76756 -0.63931,3.77993 0.10159,6.24801 3.316,11.04615 3.36275,10.83671 -2.30927,10.34502 z"
         id="path318" />
      <path
         style="fill:#6d8fb5"
         d="m 504.8125,695.31689 c 0.72187,-0.28887 1.58438,-0.25335 1.91667,0.0789 0.33229,0.33229 -0.25834,0.56864 -1.3125,0.52522 -1.16495,-0.048 -1.4019,-0.28494 -0.60417,-0.60416 z m 11.9375,0.0208 c 0.6875,-0.27741 1.8125,-0.27741 2.5,0 0.6875,0.27741 0.125,0.50439 -1.25,0.50439 -1.375,0 -1.9375,-0.22698 -1.25,-0.50439 z m -23.30887,-3.89289 c -1.83031,-1.46637 -1.7984,-1.48719 0.55887,-0.36454 3.06103,1.45781 3.62834,1.91971 2.3578,1.91971 -0.53655,0 -1.84905,-0.69982 -2.91667,-1.55517 z M 530,691.57037 c 0,-0.275 0.9,-0.98167 2,-1.57037 1.1,-0.5887 2,-0.84537 2,-0.57037 0,0.275 -0.9,0.98167 -2,1.57037 -1.1,0.5887 -2,0.84537 -2,0.57037 z m -43.55887,-4.12554 c -1.86402,-1.49339 -1.85176,-1.51185 0.30887,-0.46481 1.2375,0.59969 2.25,1.29951 2.25,1.55516 0,0.76522 -0.51861,0.54424 -2.55887,-1.09035 z M 537,687.57037 c 0,-0.275 0.9,-0.98167 2,-1.57037 1.1,-0.5887 2,-0.84537 2,-0.57037 0,0.275 -0.9,0.98167 -2,1.57037 -1.1,0.5887 -2,0.84537 -2,0.57037 z m -57.55887,-4.12554 c -1.86402,-1.49339 -1.85176,-1.51185 0.30887,-0.46481 1.2375,0.59969 2.25,1.29951 2.25,1.55516 0,0.76522 -0.51861,0.54424 -2.55887,-1.09035 z M 542,684.55136 c 0,-0.275 1.35,-1.19811 3,-2.05136 1.65,-0.85325 3,-1.32636 3,-1.05136 0,0.275 -1.35,1.19811 -3,2.05136 -1.65,0.85325 -3,1.32636 -3,1.05136 z m -81.55887,-12.10653 c -1.86402,-1.49339 -1.85176,-1.51185 0.30887,-0.46481 1.2375,0.59969 2.25,1.29951 2.25,1.55516 0,0.76522 -0.51861,0.54424 -2.55887,-1.09035 z M 561,673.57037 c 0,-0.275 0.9,-0.98167 2,-1.57037 1.1,-0.5887 2,-0.84537 2,-0.57037 0,0.275 -0.9,0.98167 -2,1.57037 -1.1,0.5887 -2,0.84537 -2,0.57037 z m -107.55887,-5.12554 c -1.86402,-1.49339 -1.85176,-1.51185 0.30887,-0.46481 1.2375,0.59969 2.25,1.29951 2.25,1.55516 0,0.76522 -0.51861,0.54424 -2.55887,-1.09035 z M 568,669.57037 c 0,-0.275 0.9,-0.98167 2,-1.57037 1.1,-0.5887 2,-0.84537 2,-0.57037 0,0.275 -0.9,0.98167 -2,1.57037 -1.1,0.5887 -2,0.84537 -2,0.57037 z m -121.55887,-5.12554 c -1.86402,-1.49339 -1.85176,-1.51185 0.30887,-0.46481 1.2375,0.59969 2.25,1.29951 2.25,1.55516 0,0.76522 -0.51861,0.54424 -2.55887,-1.09035 z M 575,665.57037 c 0,-0.275 0.9,-0.98167 2,-1.57037 1.1,-0.5887 2,-0.84537 2,-0.57037 0,0.275 -0.9,0.98167 -2,1.57037 -1.1,0.5887 -2,0.84537 -2,0.57037 z M 429.44113,654.44483 c -1.86402,-1.49339 -1.85176,-1.51185 0.30887,-0.46481 1.2375,0.59969 2.25,1.29951 2.25,1.55516 0,0.76522 -0.51861,0.54424 -2.55887,-1.09035 z M 597,652.57037 c 0,-0.275 0.9,-0.98167 2,-1.57037 1.1,-0.5887 2,-0.84537 2,-0.57037 0,0.275 -0.9,0.98167 -2,1.57037 -1.1,0.5887 -2,0.84537 -2,0.57037 z m 7,-4 c 0,-0.275 0.9,-0.98167 2,-1.57037 1.1,-0.5887 2,-0.84537 2,-0.57037 0,0.275 -0.9,0.98167 -2,1.57037 -1.1,0.5887 -2,0.84537 -2,0.57037 z m 7,-4 c 0,-0.275 0.9,-0.98167 2,-1.57037 1.1,-0.5887 2,-0.84537 2,-0.57037 0,0.275 -0.9,0.98167 -2,1.57037 -1.1,0.5887 -2,0.84537 -2,0.57037 z m 12,-7 c 0,-0.275 0.9,-0.98167 2,-1.57037 1.1,-0.5887 2,-0.84537 2,-0.57037 0,0.275 -0.9,0.98167 -2,1.57037 -1.1,0.5887 -2,0.84537 -2,0.57037 z m -229.55887,-4.12554 c -1.86402,-1.49339 -1.85176,-1.51185 0.30887,-0.46481 1.2375,0.59969 2.25,1.29951 2.25,1.55516 0,0.76522 -0.51861,0.54424 -2.55887,-1.09035 z M 628,634.57037 c 0,-0.275 0.9,-0.98167 2,-1.57037 1.1,-0.5887 2,-0.84537 2,-0.57037 0,0.275 -0.9,0.98167 -2,1.57037 -1.1,0.5887 -2,0.84537 -2,0.57037 z m -241.55887,-5.12554 c -1.86402,-1.49339 -1.85176,-1.51185 0.30887,-0.46481 1.2375,0.59969 2.25,1.29951 2.25,1.55516 0,0.76522 -0.51861,0.54424 -2.55887,-1.09035 z M 635,630.57037 c 0,-0.275 0.9,-0.98167 2,-1.57037 1.1,-0.5887 2,-0.84537 2,-0.57037 0,0.275 -0.9,0.98167 -2,1.57037 -1.1,0.5887 -2,0.84537 -2,0.57037 z m 7,-4 c 0,-0.275 0.9,-0.98167 2,-1.57037 1.1,-0.5887 2,-0.84537 2,-0.57037 0,0.275 -0.9,0.98167 -2,1.57037 -1.1,0.5887 -2,0.84537 -2,0.57037 z m -269.55887,-5.12554 c -1.86402,-1.49339 -1.85176,-1.51185 0.30887,-0.46481 1.2375,0.59969 2.25,1.29951 2.25,1.55516 0,0.76522 -0.51861,0.54424 -2.55887,-1.09035 z M 362.43709,613.75 359.5,610.5 l 3.25,2.93709 c 3.02946,2.73778 3.70965,3.56291 2.93709,3.56291 -0.1721,0 -1.6346,-1.4625 -3.25,-3.25 z M 658,616.68709 c 0,-0.1721 1.4625,-1.6346 3.25,-3.25 l 3.25,-2.93709 -2.93709,3.25 C 658.82513,616.77946 658,617.45965 658,616.68709 Z m 8.56429,-10.98022 c 0.37553,-0.98622 0.93469,-1.54122 1.24258,-1.23333 0.30789,0.30789 6.4e-4,1.11479 -0.68278,1.79313 -0.98762,0.98026 -1.10248,0.8654 -0.5598,-0.5598 z m -313.48534,-9.2902 c 0.048,-1.16495 0.28494,-1.4019 0.60416,-0.60417 0.28887,0.72187 0.25335,1.58438 -0.0789,1.91667 -0.33229,0.33229 -0.56864,-0.25834 -0.52522,-1.3125 z m -0.884,-4.91667 c 0.0204,-1.65 0.2445,-2.20394 0.49804,-1.23097 0.25354,0.97297 0.23687,2.32297 -0.0371,3 -0.27393,0.67703 -0.48137,-0.11903 -0.46099,-1.76903 z m 318.96294,0.5 c 0,-1.375 0.22698,-1.9375 0.50439,-1.25 0.27741,0.6875 0.27741,1.8125 0,2.5 -0.27741,0.6875 -0.50439,0.125 -0.50439,-1.25 z m 1.2446,-23 c 0,-8.525 0.15337,-12.0125 0.34082,-7.75 0.18745,4.2625 0.18745,11.2375 0,15.5 -0.18745,4.2625 -0.34082,0.775 -0.34082,-7.75 z M 405,570.94098 c 0,-0.58246 0.45,-0.7809 1,-0.44098 0.55,0.33992 1,0.81648 1,1.05902 0,0.24254 -0.45,0.44098 -1,0.44098 -0.55,0 -1,-0.47656 -1,-1.05902 z M 419.5,571 c -0.33992,-0.55 -0.14148,-1 0.44098,-1 0.58246,0 1.05902,0.45 1.05902,1 0,0.55 -0.19844,1 -0.44098,1 -0.24254,0 -0.7191,-0.45 -1.05902,-1 z m 252.95199,-55 c 0,-20.075 0.13345,-28.2875 0.29656,-18.25 0.16311,10.0375 0.16311,26.4625 0,36.5 -0.16311,10.0375 -0.29656,1.825 -0.29656,-18.25 z M 599.5,546 c -0.33992,-0.55 -0.14148,-1 0.44098,-1 0.58246,0 1.05902,0.45 1.05902,1 0,0.55 -0.19844,1 -0.44098,1 -0.24254,0 -0.7191,-0.45 -1.05902,-1 z M 430,518 c -0.90129,-0.58246 -1.02463,-0.97549 -0.30902,-0.98469 0.65504,-0.008 1.4691,0.43469 1.80902,0.98469 0.7673,1.24153 0.42112,1.24153 -1.5,0 z m -77.80505,-77.5 c 0.0204,-1.65 0.2445,-2.20394 0.49804,-1.23097 0.25354,0.97297 0.23687,2.32297 -0.0371,3 -0.27393,0.67703 -0.48137,-0.11903 -0.46099,-1.76903 z M 671.15789,440 c 0,-1.375 0.22698,-1.9375 0.50439,-1.25 0.27741,0.6875 0.27741,1.8125 0,2.5 -0.27741,0.6875 -0.50439,0.125 -0.50439,-1.25 z M 355,429.61701 C 355,428.54382 357.97538,423 358.55136,423 c 0.275,0 -0.24379,1.4625 -1.15286,3.25 -1.85623,3.6499 -2.3985,4.41113 -2.3985,3.36701 z M 362.95821,417.75 c 2.45201,-2.6125 4.58951,-4.75 4.75,-4.75 0.75088,0 -0.043,0.89783 -4.45821,5.04179 L 358.5,422.5 Z m 296.98796,-0.5 -3.44617,-3.75 3.75,3.44617 c 3.49042,3.20761 4.20979,4.05383 3.44617,4.05383 -0.16711,0 -1.85461,-1.6875 -3.75,-3.75 z M 375,409.57037 c 0,-0.275 0.9,-0.98167 2,-1.57037 1.1,-0.5887 2,-0.84537 2,-0.57037 0,0.275 -0.9,0.98167 -2,1.57037 -1.1,0.5887 -2,0.84537 -2,0.57037 z m 271.44113,-1.12554 c -1.86402,-1.49339 -1.85176,-1.51185 0.30887,-0.46481 1.2375,0.59969 2.25,1.29951 2.25,1.55516 0,0.76522 -0.51861,0.54424 -2.55887,-1.09035 z m -14,-8 c -1.86402,-1.49339 -1.85176,-1.51185 0.30887,-0.46481 1.2375,0.59969 2.25,1.29951 2.25,1.55516 0,0.76522 -0.51861,0.54424 -2.55887,-1.09035 z M 403,393.57037 c 0,-0.275 0.9,-0.98167 2,-1.57037 1.1,-0.5887 2,-0.84537 2,-0.57037 0,0.275 -0.9,0.98167 -2,1.57037 -1.1,0.5887 -2,0.84537 -2,0.57037 z m 213.44113,-2.12554 c -1.86402,-1.49339 -1.85176,-1.51185 0.30887,-0.46481 1.2375,0.59969 2.25,1.29951 2.25,1.55516 0,0.76522 -0.51861,0.54424 -2.55887,-1.09035 z M 410,389.57037 c 0,-0.275 0.9,-0.98167 2,-1.57037 1.1,-0.5887 2,-0.84537 2,-0.57037 0,0.275 -0.9,0.98167 -2,1.57037 -1.1,0.5887 -2,0.84537 -2,0.57037 z m 201.44113,-1.12554 c -1.86402,-1.49339 -1.85176,-1.51185 0.30887,-0.46481 1.2375,0.59969 2.25,1.29951 2.25,1.55516 0,0.76522 -0.51861,0.54424 -2.55887,-1.09035 z M 429,378.57037 c 0,-0.275 0.9,-0.98167 2,-1.57037 1.1,-0.5887 2,-0.84537 2,-0.57037 0,0.275 -0.9,0.98167 -2,1.57037 -1.1,0.5887 -2,0.84537 -2,0.57037 z m 163.44113,-1.12554 c -1.86402,-1.49339 -1.85176,-1.51185 0.30887,-0.46481 1.2375,0.59969 2.25,1.29951 2.25,1.55516 0,0.76522 -0.51861,0.54424 -2.55887,-1.09035 z M 436,374.57037 c 0,-0.275 0.9,-0.98167 2,-1.57037 1.1,-0.5887 2,-0.84537 2,-0.57037 0,0.275 -0.9,0.98167 -2,1.57037 -1.1,0.5887 -2,0.84537 -2,0.57037 z m 7,-4 c 0,-0.275 0.9,-0.98167 2,-1.57037 1.1,-0.5887 2,-0.84537 2,-0.57037 0,0.275 -0.9,0.98167 -2,1.57037 -1.1,0.5887 -2,0.84537 -2,0.57037 z m 17,-10 c 0,-0.275 0.9,-0.98167 2,-1.57037 1.1,-0.5887 2,-0.84537 2,-0.57037 0,0.275 -0.9,0.98167 -2,1.57037 -1.1,0.5887 -2,0.84537 -2,0.57037 z m 99.44113,-2.12554 c -1.86402,-1.49339 -1.85176,-1.51185 0.30887,-0.46481 1.2375,0.59969 2.25,1.29951 2.25,1.55516 0,0.76522 -0.51861,0.54424 -2.55887,-1.09035 z m -7,-4 c -1.86402,-1.49339 -1.85176,-1.51185 0.30887,-0.46481 1.2375,0.59969 2.25,1.29951 2.25,1.55516 0,0.76522 -0.51861,0.54424 -2.55887,-1.09035 z m -58,-13.88966 C 495.50875,339.69982 496.82125,339 497.3578,339 c 1.27054,0 0.70323,0.4619 -2.3578,1.91971 -2.35727,1.12265 -2.38918,1.10183 -0.55887,-0.36454 z M 529,341 c -0.90129,-0.58246 -1.02463,-0.97549 -0.30902,-0.98469 0.65504,-0.008 1.4691,0.43469 1.80902,0.98469 0.7673,1.24153 0.42112,1.24153 -1.5,0 z m -26.25,-3.66228 c 0.6875,-0.27741 1.8125,-0.27741 2.5,0 0.6875,0.27741 0.125,0.50439 -1.25,0.50439 -1.375,0 -1.9375,-0.22698 -1.25,-0.50439 z m 16.0625,-0.0208 c 0.72187,-0.28887 1.58438,-0.25335 1.91667,0.0789 0.33229,0.33229 -0.25834,0.56864 -1.3125,0.52522 -1.16495,-0.048 -1.4019,-0.28494 -0.60417,-0.60416 z m -8.0625,-0.97917 c 0.6875,-0.27741 1.8125,-0.27741 2.5,0 0.6875,0.27741 0.125,0.50439 -1.25,0.50439 -1.375,0 -1.9375,-0.22698 -1.25,-0.50439 z"
         id="path317" />
      <path
         style="fill:#917476"
         d="m 519,577 c 0.825,-0.53316 1.95,-0.96937 2.5,-0.96937 0.55,0 0.325,0.43621 -0.5,0.96937 -0.825,0.53316 -1.95,0.96937 -2.5,0.96937 -0.55,0 -0.325,-0.43621 0.5,-0.96937 z m -18,-1 c -0.825,-0.53316 -1.05,-0.96937 -0.5,-0.96937 0.55,0 1.675,0.43621 2.5,0.96937 0.825,0.53316 1.05,0.96937 0.5,0.96937 -0.55,0 -1.675,-0.43621 -2.5,-0.96937 z m -65,-5 c -0.825,-0.53316 -1.05,-0.96937 -0.5,-0.96937 0.55,0 1.675,0.43621 2.5,0.96937 0.825,0.53316 1.05,0.96937 0.5,0.96937 -0.55,0 -1.675,-0.43621 -2.5,-0.96937 z m 54,0 c -0.825,-0.53316 -1.05,-0.96937 -0.5,-0.96937 0.55,0 1.675,0.43621 2.5,0.96937 0.825,0.53316 1.05,0.96937 0.5,0.96937 -0.55,0 -1.675,-0.43621 -2.5,-0.96937 z m -17,-8 c -0.90129,-0.58246 -1.02463,-0.97549 -0.30902,-0.98469 0.65504,-0.008 1.4691,0.43469 1.80902,0.98469 0.7673,1.24153 0.42112,1.24153 -1.5,0 z m 86,0 c 0.825,-0.53316 1.95,-0.96937 2.5,-0.96937 0.55,0 0.325,0.43621 -0.5,0.96937 -0.825,0.53316 -1.95,0.96937 -2.5,0.96937 -0.55,0 -0.325,-0.43621 0.5,-0.96937 z m 41.35496,-7.5 c -0.003,-4.95 0.16605,-7.10108 0.37577,-4.78017 0.20972,2.3209 0.21222,6.3709 0.006,9 -0.20667,2.62909 -0.37827,0.73017 -0.38131,-4.21983 z m -177.02682,0 c 0.004,-3.85 0.18518,-5.30246 0.40166,-3.2277 0.21647,2.07477 0.21284,5.22477 -0.008,7 -0.22091,1.77524 -0.39803,0.0777 -0.39359,-3.7723 z M 568,559 c 0.825,-0.53316 1.95,-0.96937 2.5,-0.96937 0.55,0 0.325,0.43621 -0.5,0.96937 -0.825,0.53316 -1.95,0.96937 -2.5,0.96937 -0.55,0 -0.325,-0.43621 0.5,-0.96937 z m -152.92105,-5.58333 c 0.048,-1.16495 0.28494,-1.4019 0.60416,-0.60417 0.28887,0.72187 0.25335,1.58438 -0.0789,1.91667 -0.33229,0.33229 -0.56864,-0.25834 -0.52522,-1.3125 z M 451,553 c -0.825,-0.53316 -1.05,-0.96937 -0.5,-0.96937 0.55,0 1.675,0.43621 2.5,0.96937 0.825,0.53316 1.05,0.96937 0.5,0.96937 -0.55,0 -1.675,-0.43621 -2.5,-0.96937 z m 66,0 c 0.825,-0.53316 1.95,-0.96937 2.5,-0.96937 0.55,0 0.325,0.43621 -0.5,0.96937 -0.825,0.53316 -1.95,0.96937 -2.5,0.96937 -0.55,0 -0.325,-0.43621 0.5,-0.96937 z m 56,-1 c 0.825,-0.53316 1.95,-0.96937 2.5,-0.96937 0.55,0 0.325,0.43621 -0.5,0.96937 -0.825,0.53316 -1.95,0.96937 -2.5,0.96937 -0.55,0 -0.325,-0.43621 0.5,-0.96937 z m -78,-3.5 c -1.375,-0.78602 -2.05,-1.42913 -1.5,-1.42913 0.55,0 2.125,0.64311 3.5,1.42913 1.375,0.78602 2.05,1.42913 1.5,1.42913 -0.55,0 -2.125,-0.64311 -3.5,-1.42913 z M 409.5,527 c 0,-10.34496 0.3375,-18.60043 0.75,-18.34549 0.4125,0.25494 0.75,8.51041 0.75,18.34549 0,9.83508 -0.3375,18.09055 -0.75,18.34549 C 409.8375,545.60043 409.5,537.34496 409.5,527 Z M 548,543.60699 c 0,-0.21616 0.69837,-0.661 1.55194,-0.98855 0.88992,-0.34149 1.29132,-0.17385 0.94098,0.39301 C 549.90566,543.96166 548,544.4169 548,543.60699 Z m -120.49292,-1.59554 c -0.35034,-0.56686 0.0511,-0.7345 0.94098,-0.39301 1.73242,0.66479 2.04939,1.38156 0.61096,1.38156 -0.51754,0 -1.21592,-0.44485 -1.55194,-0.98855 z M 543,541 c 0.825,-0.53316 1.95,-0.96937 2.5,-0.96937 0.55,0 0.325,0.43621 -0.5,0.96937 -0.825,0.53316 -1.95,0.96937 -2.5,0.96937 -0.55,0 -0.325,-0.43621 0.5,-0.96937 z M 415.40249,526 c 0,-8.525 0.15337,-12.0125 0.34082,-7.75 0.18745,4.2625 0.18745,11.2375 0,15.5 -0.18745,4.2625 -0.34082,0.775 -0.34082,-7.75 z m 184.95247,4.5 c -0.003,-4.95 0.16605,-7.10108 0.37577,-4.78017 0.20972,2.3209 0.21222,6.3709 0.006,9 -0.20667,2.62909 -0.37827,0.73017 -0.38131,-4.21983 z m -177.16001,-5 c 0.0204,-1.65 0.2445,-2.20394 0.49804,-1.23097 0.25354,0.97297 0.23687,2.32297 -0.0371,3 -0.27393,0.67703 -0.48137,-0.11903 -0.46099,-1.76903 z M 584,522 c 0.825,-0.53316 1.95,-0.96937 2.5,-0.96937 0.55,0 0.325,0.43621 -0.5,0.96937 -0.825,0.53316 -1.95,0.96937 -2.5,0.96937 -0.55,0 -0.325,-0.43621 0.5,-0.96937 z m -144.21648,-5.7384 c 2.90594,-0.20265 7.40594,-0.20052 10,0.005 2.59406,0.20525 0.21648,0.37104 -5.28352,0.36844 -5.5,-0.003 -7.62242,-0.17053 -4.71648,-0.37317 z m 181.94981,-11.38569 c 0.67834,-0.68342 1.48524,-0.99067 1.79313,-0.68278 0.30789,0.30789 -0.24711,0.86705 -1.23333,1.24258 -1.4252,0.54268 -1.54006,0.42782 -0.5598,-0.5598 z m 13,-6 c 0.67834,-0.68342 1.48524,-0.99067 1.79313,-0.68278 0.30789,0.30789 -0.24711,0.86705 -1.23333,1.24258 -1.4252,0.54268 -1.54006,0.42782 -0.5598,-0.5598 z"
         id="path316" />
      <path
         style="fill:#5a5771"
         d="m 408.15789,548 c 0,-1.375 0.22698,-1.9375 0.50439,-1.25 0.27741,0.6875 0.27741,1.8125 0,2.5 -0.27741,0.6875 -0.50439,0.125 -0.50439,-1.25 z m 15,-1 c 0,-1.375 0.22698,-1.9375 0.50439,-1.25 0.27741,0.6875 0.27741,1.8125 0,2.5 -0.27741,0.6875 -0.50439,0.125 -0.50439,-1.25 z M 540,543 c 0.825,-0.53316 1.95,-0.96937 2.5,-0.96937 0.55,0 0.325,0.43621 -0.5,0.96937 -0.825,0.53316 -1.95,0.96937 -2.5,0.96937 -0.55,0 -0.325,-0.43621 0.5,-0.96937 z m -116.58818,-3.3692 c -0.28898,-0.75306 -0.37986,-3.79056 -0.20196,-6.75 l 0.32345,-5.3808 0.48335,6.7521 c 0.4865,6.79624 0.36245,7.89941 -0.60484,5.3787 z M 465,535 c -0.825,-0.53316 -1.05,-0.96937 -0.5,-0.96937 0.55,0 1.675,0.43621 2.5,0.96937 0.825,0.53316 1.05,0.96937 0.5,0.96937 -0.55,0 -1.675,-0.43621 -2.5,-0.96937 z m -36.12092,-18.27908 c 0.4825,-0.4825 2.1696,-0.71609 3.7491,-0.5191 2.64362,0.32972 2.5739,0.39943 -0.87727,0.87727 -2.14974,0.29765 -3.37485,0.14485 -2.87183,-0.35817 z M 454.41706,513.78294 454.5,511.5 435,510.95603 l -19.5,-0.54396 19.39201,0.044 c 20.07256,0.0455 24.11046,0.9415 20.50257,4.54939 -0.74728,0.74728 -1.03597,0.38626 -0.97752,-1.22248 z m 21.31627,-66.90703 c 0.67834,-0.68342 1.48524,-0.99067 1.79313,-0.68278 0.30789,0.30789 -0.24711,0.86705 -1.23333,1.24258 -1.4252,0.54268 -1.54006,0.42782 -0.5598,-0.5598 z"
         id="path315" />
      <path
         style="fill:#0147a4"
         d="m 504.09324,690.38765 c 1.22925,-1.48115 -0.20628,-2.55385 -1.96394,-1.46756 -2.24429,1.38705 -8.42762,0.0686 -12.74325,-2.71715 -2.30301,-1.48662 -5.57703,-3.46665 -7.27558,-4.40006 -1.88659,-1.03675 -2.88033,-2.23903 -2.55387,-3.08979 0.69994,-1.824 -1.58683,-3.65523 -4.90771,-3.93008 C 473.192,674.66244 472,674.18538 472,673.72288 c 0,-0.4625 -0.45,-0.5628 -1,-0.22288 -0.55,0.33992 -1,0.19773 -1,-0.31598 0,-0.51371 -1.2375,-1.19781 -2.75,-1.52021 -1.5125,-0.32241 -4.325,-1.59476 -6.25,-2.82746 -1.925,-1.2327 -3.725,-2.28826 -4,-2.3457 -0.71809,-0.14999 -10.04422,-4.85001 -13,-6.55152 -4.20297,-2.41945 -6.00071,-4.17497 -5.98469,-5.84412 0.0134,-1.40054 0.14466,-1.41212 1.07613,-0.095 0.86543,1.22371 0.98912,1.23487 0.67154,0.0606 -0.23189,-0.85747 -1.78254,-1.49984 -3.83533,-1.58882 -5.78634,-0.25081 -17.605,-6.56675 -16.2849,-8.70272 0.38973,-0.63059 0.19927,-0.78942 -0.45887,-0.38266 C 417.57609,644.38003 412,641.25303 412,639.35774 c 0,-1.15773 -0.68069,-1.46077 -2.5,-1.11299 -1.71756,0.32833 -2.5,0.0334 -2.5,-0.94244 0,-0.78119 -0.3401,-1.21015 -0.75577,-0.95325 -0.77469,0.47878 -4.67731,-1.27636 -11.74423,-5.28178 -2.2,-1.24693 -5.69092,-3.20696 -7.75759,-4.35562 -2.93127,-1.6292 -3.62093,-2.51905 -3.13614,-4.04647 0.51229,-1.6141 0.25017,-1.86091 -1.49242,-1.40521 -1.16262,0.30403 -2.11736,0.25741 -2.12165,-0.1036 -0.0114,-0.95986 -5.13847,-3.18401 -6.04632,-2.62293 -0.42525,0.26282 -0.56624,-0.83527 -0.3133,-2.4402 0.25295,-1.60494 -0.0109,-3.20904 -0.58634,-3.56467 -0.57543,-0.35564 -1.04624,-0.2182 -1.04624,0.30541 0,0.52362 -0.72574,1.23052 -1.61274,1.5709 C 368.39914,615.1678 362,611.36334 362,609.41844 362,608.6383 361.55,608 361,608 c -0.55,0 -1,-0.64286 -1,-1.42857 0,-0.78572 -0.60159,-2.03016 -1.33687,-2.76544 -2.06975,-2.06976 -2.80043,-9.81154 -1.08767,-11.5243 2.14908,-2.14909 1.79382,-5.95186 -0.61488,-6.58175 -2.03317,-0.53168 -2.03854,-0.76564 -1.75,-76.36663 L 355.5,433.5 357.96709,430 c 3.06788,-4.35233 4.64476,-6 5.74224,-6 0.46871,0 1.34372,-1.30219 1.94447,-2.89375 0.60074,-1.59157 2.3869,-3.69965 3.96923,-4.68462 1.58233,-0.98498 3.77697,-2.56495 4.87697,-3.51105 2.59931,-2.23564 8.27085,-5.61822 11.75,-7.00784 1.5125,-0.60411 2.75,-1.50437 2.75,-2.00057 0,-1.31235 2.76497,-1.10727 3.21351,0.23836 0.22706,0.68119 1.47987,0.12137 3.11067,-1.39 1.50176,-1.39179 4.06818,-3.08463 5.70315,-3.76185 C 402.6623,398.31145 404,397.3658 404,396.88723 c 0,-0.81649 4.36004,-3.55285 16.25931,-10.20434 3.86116,-2.15833 5.22432,-2.5184 5.82915,-1.53976 0.61736,0.99891 1.2019,0.90407 2.68164,-0.43508 1.04071,-0.94183 2.19318,-1.41143 2.56105,-1.04357 0.36787,0.36787 0.66885,-0.0312 0.66885,-0.8867 0,-0.86018 0.77151,-1.49347 1.72588,-1.41667 0.94923,0.0764 1.73673,-0.39785 1.75,-1.05387 0.0339,-1.67412 4.1291,-5.30724 5.98231,-5.30724 0.84799,0 1.54181,-0.46114 1.54181,-1.02475 0,-0.56361 1.0125,-1.47265 2.25,-2.02008 1.2375,-0.54743 4.275,-2.30092 6.75,-3.89664 2.475,-1.59573 5.0625,-2.93669 5.75,-2.97993 0.6875,-0.0432 1.25,-0.55689 1.25,-1.14146 0,-0.58457 0.7875,-0.9673 1.75,-0.85051 2.20192,0.26718 10.80125,-3.80946 14.48536,-6.867 0.79676,-0.66125 1.74475,-0.90618 2.10665,-0.54429 0.36189,0.3619 0.65799,-0.11497 0.65799,-1.0597 0,-0.99212 1.37283,-2.29247 3.25,-3.07841 1.7875,-0.74839 4.33135,-2.30043 5.65301,-3.44897 2.12163,-1.84374 3.45216,-2.30839 5.73519,-2.00285 0.351,0.047 0.92193,-0.37369 1.26873,-0.93482 0.6026,-0.97502 4.31399,-1.87497 8.59307,-2.08367 1.48485,-0.0724 1.65726,-0.31482 0.66934,-0.9411 -2.11307,-1.33955 4.22676,-2.212 10.6869,-1.47067 3.10407,0.35621 5.90323,1.04232 6.22035,1.52469 0.31713,0.48237 3.33442,1.38991 6.7051,2.01675 3.37067,0.62685 5.90033,1.50889 5.62146,1.96011 -0.27886,0.45121 0.14229,0.57122 0.9359,0.26669 0.79362,-0.30454 2.95449,0.74969 4.80194,2.34274 1.84746,1.59304 4.17503,3.19418 5.17239,3.55809 0.99736,0.36391 1.52641,1.12598 1.17567,1.69349 -0.35074,0.56752 -0.26676,0.9371 0.18662,0.82129 1.27549,-0.32578 8.14731,2.8766 11.01764,5.13439 1.41702,1.11464 3.20954,2.02661 3.98336,2.02661 0.77383,0 2.37299,0.9 3.5537,2 1.18072,1.1 2.75273,2 3.49337,2 2.62742,0 6.51482,3.22524 5.08593,4.21961 -0.87455,0.6086 -0.5605,0.70061 0.94526,0.27695 1.52645,-0.4295 2.44159,-0.148 2.83275,0.87135 0.31781,0.82819 1.18108,1.27432 1.91839,0.99139 0.7373,-0.28293 1.84089,0.42048 2.45242,1.56314 0.61153,1.14266 1.77104,2.07756 2.57669,2.07756 0.80565,0 1.46482,0.45 1.46482,1 0,0.55 0.65917,1 1.46482,1 0.80565,0 1.94648,0.9 2.53518,2 0.5887,1.1 1.66885,2 2.40033,2 0.73147,0 2.52887,0.94307 3.99421,2.09571 1.46534,1.15264 3.32603,1.84176 4.13486,1.53138 0.80883,-0.31038 1.47749,-0.0159 1.48591,0.65429 0.01,0.77072 0.37161,0.6673 0.98469,-0.28138 0.62631,-0.96915 0.97479,-1.06437 0.98469,-0.26905 0.008,0.67702 1.25281,1.53587 2.76531,1.90855 1.5125,0.37268 4.14248,1.73125 5.84439,3.01905 1.70192,1.2878 3.61442,2.34145 4.25,2.34145 0.63559,0 1.15561,0.41968 1.15561,0.93261 0,0.51294 0.9,1.21826 2,1.56739 1.1,0.34913 2,1.20722 2,1.90687 0,0.69966 1.11613,1.78064 2.48029,2.4022 1.57544,0.71782 2.27274,1.67094 1.91139,2.61262 -0.86927,2.26528 0.67573,4.20924 1.77881,2.23815 0.8595,-1.53585 6.47497,-1.3584 7.82951,0.24741 0.275,0.32601 1.4,0.74133 2.5,0.92293 2.56913,0.42414 13.47244,7.40539 12.93185,8.28009 -0.22541,0.36471 0.26022,1.2192 1.07916,1.89887 0.81894,0.67966 1.48899,1.85565 1.48899,2.6133 0,0.75766 0.65264,1.37756 1.45031,1.37756 1.89621,0 3.41715,2.79083 2.8023,5.14203 -0.26723,1.02188 -0.0147,1.85797 0.56121,1.85797 0.57589,0 1.19088,-0.99808 1.36663,-2.21796 0.33155,-2.30122 6.81955,2.55171 6.81955,5.10092 0,0.52271 0.48569,1.11227 1.07931,1.31014 1.98432,0.66144 3.54366,10.99325 2.97186,19.69086 -0.30314,4.61118 -0.32293,25.98618 -0.044,47.5 0.42036,32.41843 -0.15116,93.4257 -0.819,87.42506 -0.24469,-2.19856 -1.84985,-3.1655 -2.77361,-1.67082 -0.44277,0.71641 -0.29087,0.90337 0.39138,0.48172 0.75695,-0.46782 1.04739,0.52617 0.90451,3.09549 -0.12969,2.33195 0.21646,3.70625 0.90184,3.58048 1.72945,-0.31734 -0.0751,7.5541 -2.85287,12.44452 -2.23369,3.93248 -2.49531,4.09516 -4.06364,2.52683 -1.56833,-1.56833 -1.77127,-1.55042 -3.15218,0.27825 -1.64488,2.17826 -1.4329,4.10097 0.4057,3.67973 0.65963,-0.15112 0.94328,0.13953 0.63033,0.64589 -0.32778,0.53036 -2.08308,0.57919 -4.14041,0.11519 -4.00964,-0.90432 -5.01957,0.19762 -4.18454,4.56579 0.52139,2.72746 -1.47356,4.44791 -5.15758,4.44791 -1.39748,0 -1.85416,0.46959 -1.45876,1.5 0.78642,2.04937 -0.61964,1.89289 -2.24632,-0.25 -1.22635,-1.61551 -1.33089,-1.5716 -1.36025,0.57143 -0.0365,2.6646 -1.4007,4.20164 -5.2338,5.89692 -2.27718,1.00714 -2.61411,0.966 -2.14301,-0.26166 1.03875,-2.70694 -2.9825,-0.3838 -8.73888,5.04857 -0.87114,0.82211 -2.55864,1.49474 -3.75,1.49474 -1.19136,0 -2.16611,0.47656 -2.16611,1.05902 0,0.58246 0.45,0.7809 1,0.44098 2.27021,-1.40307 0.79279,0.40575 -1.62579,1.99047 -2.08503,1.36616 -2.79014,1.45458 -3.42379,0.42931 -1.05575,-1.70824 -4.06943,0.60651 -3.32281,2.55218 0.27981,0.72916 -0.0415,1.66579 -0.71394,2.0814 -0.78187,0.48322 -0.96544,0.33942 -0.50916,-0.39885 0.39244,-0.63498 0.28945,-1.15451 -0.22886,-1.15451 -0.51831,0 -1.16113,0.83647 -1.42848,1.85883 -0.26735,1.02236 -1.77783,2.18303 -3.35662,2.57928 -1.57878,0.39625 -3.13648,1.15079 -3.46154,1.67675 -0.32506,0.52596 -1.90457,1.19175 -3.51001,1.47953 -1.60545,0.28778 -3.06463,0.93368 -3.24263,1.43532 -0.178,0.50165 -2.21243,0.68994 -4.52096,0.41844 -4.01084,-0.47171 -9.12543,3.7485 -7.0537,5.82023 0.30196,0.30195 -0.39144,0.84749 -1.54087,1.21231 -1.14943,0.36482 -1.85101,1.04981 -1.55905,1.52221 0.80735,1.30631 -1.38064,2.27728 -5.39236,2.39299 -2.78877,0.0804 -3.57785,0.502 -3.47054,1.85411 0.0764,0.9625 -0.50404,1.75 -1.28984,1.75 -2.32508,0 -9.05366,3.78784 -9.69433,5.4574 -0.32557,0.84843 -1.45097,1.5426 -2.50089,1.5426 -1.04992,0 -2.46722,0.67269 -3.14956,1.49486 -0.82534,0.99447 -2.42025,1.34854 -4.76468,1.05776 -2.64193,-0.32768 -3.23814,-0.15117 -2.38183,0.70514 1.43216,1.43216 1.47192,2.74224 0.0832,2.74224 -0.58246,0 -0.7809,-0.45 -0.44098,-1 0.33992,-0.55 -0.0694,-1 -0.9096,-1 -0.91234,0 -1.30707,0.57478 -0.98003,1.42704 0.39986,1.04201 -0.0133,1.28035 -1.53138,0.88337 -1.14344,-0.29902 -2.07899,-0.0742 -2.07899,0.49963 0,0.57382 0.7875,1.2028 1.75,1.39773 2.19104,0.44373 -4.02197,3.79223 -7.03634,3.79223 -1.08849,0 -2.82591,0.97642 -3.86094,2.16982 -1.48088,1.70747 -3.04675,2.1869 -7.34873,2.25 -4.64635,0.0682 -5.38768,0.33278 -4.9393,1.7632 0.59786,1.90726 -5.00159,1.78008 -6.93928,-0.15761 C 511.14449,688.54449 510,688.76503 510,690.53133 c 0,1.12454 -0.91787,1.46951 -3.45532,1.29862 -2.57465,-0.1734 -3.19945,-0.541 -2.45144,-1.4423 z M 432,649.39235 c 0,-0.82763 -1.94173,-1.29565 -2.38691,-0.57533 -0.28881,0.46731 0.13009,0.84965 0.9309,0.84965 0.8008,0 1.45601,-0.12345 1.45601,-0.27432 z M 624,625 c 0,-0.55 -0.45,-1 -1,-1 -0.55,0 -1,0.45 -1,1 0,0.55 0.45,1 1,1 0.55,0 1,-0.45 1,-1 z m 26,-16 c 0,-0.55 -0.70156,-1 -1.55902,-1 -0.85746,0 -1.2809,0.45 -0.94098,1 0.33992,0.55 1.04148,1 1.55902,1 0.51754,0 0.94098,-0.45 0.94098,-1 z m -134.42861,-1.97139 c 0.53426,-0.53426 1.86176,-1.12167 2.95,-1.30537 1.08823,-0.18369 3.42611,-1.10036 5.19528,-2.03705 1.76916,-0.93669 4.41015,-1.80185 5.86885,-1.92258 1.45871,-0.12072 2.86998,-0.78704 3.13616,-1.4807 0.26618,-0.69366 2.14453,-1.70834 4.17412,-2.25485 2.02958,-0.54651 4.58588,-1.82816 5.68067,-2.84811 1.99404,-1.85773 6.40863,-3.5141 9.65416,-3.62227 0.95185,-0.0317 1.70605,-0.49011 1.67601,-1.01864 -0.0847,-1.48909 3.44249,-2.41252 4.86625,-1.27401 0.93419,0.74702 1.12581,0.63455 0.72012,-0.42265 -0.36196,-0.94326 0.83828,-2.22233 3.47711,-3.70543 2.21643,-1.24571 4.02988,-2.00075 4.02988,-1.67788 0,0.32287 1.1385,-0.15894 2.53,-1.07068 1.3915,-0.91175 3.979,-1.8143 5.75,-2.00567 5.27247,-0.56974 7.83559,-1.38668 7.26208,-2.31463 -0.50297,-0.81382 3.8055,-2.89315 7.6387,-3.68653 0.92443,-0.19134 3.34972,-1.48046 5.38954,-2.86472 2.03983,-1.38426 4.12254,-2.51684 4.62824,-2.51684 0.50571,0 0.5941,-0.52647 0.19641,-1.16994 -0.48333,-0.78205 -0.18197,-0.9623 0.90896,-0.54367 2.59,0.99387 3.10875,-1.07725 2.93875,-11.73287 -0.0876,-5.49285 0.25672,-10.24413 0.76522,-10.55841 0.5405,-0.33404 0.40553,-1.59407 -0.3249,-3.03326 -1.8693,-3.68315 -1.9016,-7.66399 -0.0679,-8.36765 1.28403,-0.49273 1.49379,-1.85518 1.13153,-7.34953 -0.50974,-7.73119 -0.189,-9.24467 1.95914,-9.24467 1.265,0 1.31401,0.27122 0.27522,1.52289 -1.05678,1.27335 -0.99492,1.41968 0.37756,0.89301 1.75303,-0.6727 2.29336,-3.4159 0.67282,-3.4159 -0.53273,0 -0.72748,-0.62836 -0.43277,-1.39637 0.50464,-1.31509 4.72545,-2.62624 8.673,-2.69418 0.97439,-0.0168 1.53947,-0.4061 1.25575,-0.86519 C 617.92706,510.07296 620.31753,509 623.08179,509 624.1368,509 625,508.52344 625,507.94098 c 0,-0.58246 0.50031,-0.7498 1.1118,-0.37188 0.6115,0.37792 1.399,0.24738 1.75,-0.2901 1.04018,-1.59274 17.97223,-9.49961 18.99251,-8.86904 0.51555,0.31862 1.99674,-0.3033 3.29153,-1.38205 1.46733,-1.22251 1.83399,-1.9739 0.97332,-1.99464 -1.01062,-0.0244 -1.23184,-0.9515 -0.82508,-3.45806 0.5449,-3.35782 0.47489,-3.43845 -3.5807,-4.12363 -2.27506,-0.38437 -4.82877,-1.02701 -5.67492,-1.42808 -0.84616,-0.40107 -3.14672,-1.49862 -5.11237,-2.439 -1.96565,-0.94038 -4.21565,-1.82703 -5,-1.97033 -2.61873,-0.47846 -8.67338,-3.39625 -9.36303,-4.51214 C 621.18846,476.49592 620.06362,476 619.06343,476 c -1.0002,0 -2.38563,-0.6833 -3.07875,-1.51845 -1.75573,-2.11553 -8.12636,-5.00844 -10.2415,-4.65068 -0.96625,0.16344 -2.0269,-0.40665 -2.35699,-1.26686 C 603.0561,467.70381 601.73573,467 600.45203,467 c -1.2837,0 -2.61211,-0.45 -2.95203,-1 -0.33992,-0.55 -1.51535,-1 -2.61207,-1 -1.09672,0 -3.64962,-1.125 -5.67312,-2.5 -2.02349,-1.375 -4.23732,-2.5 -4.91961,-2.5 -1.52841,0 -18.55964,-7.60484 -22.2952,-9.95533 -2.56072,-1.61126 -17.34833,-7.86705 -20.34515,-8.60687 -1.56483,-0.38631 -3.58983,-1.89535 -4.5,-3.35342 -1.02811,-1.64702 -2.33582,-2.51247 -3.45289,-2.28514 -0.98892,0.20125 -2.49682,-0.21402 -3.35088,-0.92283 -0.85406,-0.70881 -2.06995,-1.36963 -2.70196,-1.46849 -2.8536,-0.44634 -11.73379,-3.73591 -12.22333,-4.52799 -0.99047,-1.60262 -5.19224,-0.9147 -10.40499,1.70351 -2.82893,1.4209 -5.779,2.33959 -6.55571,2.04154 -0.77671,-0.29805 -1.7616,0.0245 -2.18864,0.71681 -0.42705,0.6923 -2.61569,1.79473 -4.86365,2.44984 -2.24796,0.6551 -4.9052,2.09499 -5.90499,3.19973 -0.99978,1.10475 -2.39923,2.00864 -3.10988,2.00864 -0.71066,0 -3.40794,1.125 -5.99395,2.5 -2.58602,1.375 -5.1619,2.5 -5.72418,2.5 -0.56227,0 -1.73275,0.58453 -2.60106,1.29896 -0.86831,0.71444 -4.05374,2.35545 -7.07874,3.6467 -3.025,1.29126 -7.075,3.0462 -9,3.89988 -1.925,0.85369 -4.38047,1.69904 -5.45659,1.87856 -1.07613,0.17952 -2.20113,0.70996 -2.5,1.17875 -0.29888,0.46879 -4.59341,2.7435 -9.54341,5.05491 -4.95,2.31142 -10.52699,4.94709 -12.39332,5.85706 -1.86632,0.90996 -3.89132,1.68004 -4.5,1.71127 -1.53538,0.0788 -6.84886,2.70529 -8.33686,4.121 -0.6766,0.64373 -3.00385,1.47008 -5.17166,1.83633 -2.16782,0.36625 -4.17809,1.28248 -4.46727,2.03607 -0.28918,0.75359 -2.12443,1.67007 -4.07833,2.03663 -1.95391,0.36655 -3.55256,1.02969 -3.55256,1.47364 0,0.44395 -2.84874,1.75518 -6.33052,2.91384 -13.22496,4.40098 -13.67598,12.20198 -0.91948,15.90348 2.3375,0.67826 4.25,1.62938 4.25,2.11361 0,0.48422 1.35,1.17691 3,1.53931 1.65,0.3624 3,1.07316 3,1.57946 0,0.50629 0.92656,0.92054 2.05902,0.92054 1.13246,0 1.7809,0.45 1.44098,1 -0.34533,0.55875 0.42316,1 1.74162,1 1.29781,0 3.56598,0.5625 5.04037,1.25 l 2.68072,1.25 -0.53229,16.5 c -0.29276,9.075 -0.76218,18.525 -1.04315,21 -0.28097,2.475 -0.53065,5.5125 -0.55485,6.75 -0.0242,1.2375 -0.67139,2.25 -1.43821,2.25 -0.76681,0 -1.39421,0.45 -1.39421,1 0,0.55 0.65348,1 1.45217,1 1.26804,0 1.26941,0.60228 0.0108,4.75 -2.31508,7.62945 -2.02209,9.62711 1.28701,8.77507 5.55282,-1.42976 11.38075,-1.06675 12.74108,0.79362 1.19878,1.63942 1.48311,1.52908 3.84882,-1.49375 2.70964,-3.46227 4.68381,-3.43701 2.51724,0.0322 -1.66001,2.65811 -0.46424,3.80184 2.39437,2.29017 3.57218,-1.88902 12.01842,-0.023 15.93365,3.52025 0.92885,0.8406 2.11936,1.26227 2.64559,0.93704 1.05866,-0.65428 7.72061,1.86047 8.57015,3.23506 0.29572,0.47848 3.28954,1.87334 6.65293,3.0997 3.36339,1.22635 6.86988,2.98435 7.7922,3.90667 0.92232,0.92232 2.41731,1.53435 3.32222,1.36009 0.9049,-0.17427 1.93879,0.15806 2.29753,0.73851 0.35874,0.58045 1.5257,1.05537 2.59324,1.05537 1.06754,0 1.94098,0.675 1.94098,1.5 0,0.85569 0.89929,1.5 2.09362,1.5 1.25262,0 2.30371,0.8034 2.61663,2 0.58825,2.24945 1.90917,2.63928 2.54135,0.75 0.37844,-1.13097 7.9537,1.99529 18.7484,7.73732 2.98288,1.58669 9.20728,1.9054 10.57139,0.54129 z M 358.68311,595.8125 c -0.31922,-0.79773 -0.55618,-0.56078 -0.60416,0.60417 -0.0434,1.05416 0.19293,1.64479 0.52522,1.3125 0.33229,-0.33229 0.36781,-1.1948 0.0789,-1.91667 z M 665.64379,592 C 665.50054,588.49464 664,587.88607 664,591.33333 c 0,1.97079 0.71683,3.66667 1.54986,3.66667 0.1191,0 0.16137,-1.35 0.0939,-3 z m -3.9508,-13.73097 c -0.25354,-0.97297 -0.47766,-0.41903 -0.49804,1.23097 -0.0204,1.65 0.18706,2.44606 0.46099,1.76903 0.27392,-0.67703 0.29059,-2.02703 0.0371,-3 z M 434,576.8 c 0,-1.61542 -0.29571,-1.90429 -1.11287,-1.08713 -0.61207,0.61207 -0.81052,1.60207 -0.44098,2.2 C 433.48054,579.58655 434,579.21451 434,576.8 Z m 233.88169,-12.05 c 0.0651,-2.6125 -0.21919,-4.74813 -0.63169,-4.74584 -0.4125,0.002 -0.80504,3.48979 -0.8723,7.75 -0.083,5.25432 0.12022,6.78086 0.63168,4.74584 0.4147,-1.65 0.80723,-5.1375 0.87231,-7.75 z M 632.5,507 c 0.33992,-0.55 -0.11008,-1 -1,-1 -0.88992,0 -1.33992,0.45 -1,1 0.33992,0.55 0.78992,1 1,1 0.21008,0 0.66008,-0.45 1,-1 z m 7,-4 c 0.33992,-0.55 0.14148,-1 -0.44098,-1 -0.58246,0 -1.05902,0.45 -1.05902,1 0,0.55 0.19844,1 0.44098,1 0.24254,0 0.7191,-0.45 1.05902,-1 z m 27.40967,-22.05583 c -2.06808,-1.27814 -2.18672,-0.62544 -1.31717,7.2466 l 0.80737,7.30923 0.93077,-6.8602 c 0.73993,-5.45361 0.65362,-7.0315 -0.42097,-7.69563 z m -11.1592,5.80583 c -0.22891,-0.6875 -1.16483,-1.39519 -2.07983,-1.57265 -1.16012,-0.225 -1.48098,0.15332 -1.06014,1.25 0.70939,1.84865 3.75217,2.16131 3.13997,0.32265 z"
         id="path314" />
      <path
         style="fill:#074597"
         d="m 498.79125,692.10423 c -4.23981,-1.53112 -9.51766,-3.98094 -11.72856,-5.44404 C 484.8518,685.19708 482.83079,684 482.57157,684 c -0.25922,0 -2.40637,-1.30139 -4.77144,-2.89198 C 475.43506,679.51744 469,675.75533 463.5,672.74779 450.24605,665.50018 446.91334,663.60166 442,660.5 c -4.32863,-2.73255 -4.7572,-2.97911 -20,-11.50634 -5.225,-2.92301 -10.66168,-6.11901 -12.0815,-7.10222 -2.55958,-1.77248 -30.81903,-18.01985 -36.31762,-20.8803 -8.65049,-4.50011 -16.55925,-14.39666 -18.94406,-23.70548 -1.78909,-6.98349 -2.54584,-154.38839 -0.82811,-161.30566 2.15949,-8.69625 9.12162,-18.44532 15.96497,-22.35573 1.10138,-0.62935 6.66087,-3.79458 12.35442,-7.03384 5.69354,-3.23926 15.205,-8.75176 21.13657,-12.25 C 409.21624,390.86219 414.3356,388 414.66103,388 c 0.55607,0 13.60398,-7.66733 21.33897,-12.53938 1.925,-1.21251 7.04527,-4.17467 11.37837,-6.58259 4.3331,-2.40792 10.8581,-6.0591 14.5,-8.11375 3.6419,-2.05465 7.52163,-4.1896 8.62163,-4.74435 1.1,-0.55475 4.925,-2.77635 8.5,-4.9369 14.5949,-8.82043 17.71874,-10.44823 22.5,-11.72457 6.91545,-1.84604 11.85305,-1.69118 20.80059,0.65241 8.13718,2.13133 9.47345,2.77806 22.43186,10.85675 4.52785,2.82281 8.63525,5.13238 9.12756,5.13238 0.4923,0 1.45119,0.67005 2.13085,1.48899 0.67967,0.81894 1.63477,1.24239 2.12245,0.94098 0.48768,-0.3014 0.88669,-0.0715 0.88669,0.51101 0,0.58246 0.4302,1.05902 0.95599,1.05902 0.5258,0 3.3383,1.41286 6.25,3.1397 5.0717,3.00785 7.89615,4.64295 15.04401,8.70911 3.5433,2.01565 13.34915,7.75643 15.75,9.22074 0.825,0.50318 3.975,2.27198 7,3.93066 3.025,1.65868 8.24539,4.7439 11.60086,6.85605 3.35547,2.11215 9.88047,5.88815 14.5,8.3911 4.61953,2.50296 11.54914,6.37783 15.39914,8.61083 3.85,2.233 8.35,4.79428 10,5.69172 5.28343,2.8737 11.72404,12.86896 14.14391,21.95009 2.02463,7.59796 1.96186,151.75964 -0.0695,159.5399 -3.66854,14.05098 -8.3935,18.62097 -34.64677,33.51047 -8.48521,4.81237 -17.22766,9.96547 -19.42766,11.45132 -2.2,1.48585 -8.275,5.03744 -13.5,7.89242 -10.24505,5.59798 -11.39135,6.26657 -17.4835,10.19753 -2.20908,1.4254 -8.0665,4.77558 -13.0165,7.44484 -4.95,2.66927 -13.5,7.61456 -19,10.98954 -29.33083,17.99836 -37.84138,20.30839 -53.70875,14.57821 z M 510,690.53133 c 0,-1.7663 1.14449,-1.98684 2.62541,-0.50592 1.93769,1.93769 7.53714,2.06487 6.93928,0.15761 -0.44838,-1.43042 0.29295,-1.69505 4.9393,-1.7632 4.30198,-0.0631 5.86785,-0.54253 7.34873,-2.25 1.03503,-1.1934 2.77245,-2.16982 3.86094,-2.16982 3.01437,0 9.22738,-3.3485 7.03634,-3.79223 -0.9625,-0.19493 -1.75,-0.82391 -1.75,-1.39773 0,-0.57381 0.93555,-0.79865 2.07899,-0.49963 1.51806,0.39698 1.93124,0.15864 1.53138,-0.88337 -0.32704,-0.85226 0.0677,-1.42704 0.98003,-1.42704 0.8402,0 1.24952,0.45 0.9096,1 -0.33992,0.55 -0.14148,1 0.44098,1 1.3887,0 1.34894,-1.31008 -0.0832,-2.74224 -0.85631,-0.85631 -0.2601,-1.03282 2.38183,-0.70514 2.34443,0.29078 3.93934,-0.0633 4.76468,-1.05776 0.68234,-0.82217 2.09964,-1.49486 3.14956,-1.49486 1.04992,0 2.17532,-0.69417 2.50089,-1.5426 0.64067,-1.66956 7.36925,-5.4574 9.69433,-5.4574 0.7858,0 1.36623,-0.7875 1.28984,-1.75 -0.10731,-1.35211 0.68177,-1.77367 3.47054,-1.85411 4.01172,-0.11571 6.19971,-1.08668 5.39236,-2.39299 -0.29196,-0.4724 0.40962,-1.15739 1.55905,-1.52221 1.14943,-0.36482 1.84283,-0.91036 1.54087,-1.21231 -2.07173,-2.07173 3.04286,-6.29194 7.0537,-5.82023 2.30853,0.2715 4.34296,0.0832 4.52096,-0.41844 0.178,-0.50164 1.63718,-1.14754 3.24263,-1.43532 1.60544,-0.28778 3.18495,-0.95357 3.51001,-1.47953 0.32506,-0.52596 1.88276,-1.2805 3.46154,-1.67675 1.57879,-0.39625 3.08927,-1.55692 3.35662,-2.57928 0.26735,-1.02236 0.91017,-1.85883 1.42848,-1.85883 0.51831,0 0.6213,0.51953 0.22886,1.15451 -0.45628,0.73827 -0.27271,0.88207 0.50916,0.39885 0.67247,-0.41561 0.99375,-1.35224 0.71394,-2.0814 -0.74662,-1.94567 2.26706,-4.26042 3.32281,-2.55218 0.63365,1.02527 1.33876,0.93685 3.42379,-0.42931 2.41858,-1.58472 3.896,-3.39354 1.62579,-1.99047 -0.55,0.33992 -1,0.14148 -1,-0.44098 0,-0.58246 0.97475,-1.05902 2.16611,-1.05902 1.19136,0 2.87886,-0.67263 3.75,-1.49474 5.75638,-5.43237 9.77763,-7.75551 8.73888,-5.04857 -0.4711,1.22766 -0.13417,1.2688 2.14301,0.26166 3.8331,-1.69528 5.1973,-3.23232 5.2338,-5.89692 0.0294,-2.14303 0.1339,-2.18694 1.36025,-0.57143 1.62668,2.14289 3.03274,2.29937 2.24632,0.25 -0.3954,-1.03041 0.0613,-1.5 1.45876,-1.5 3.68402,0 5.67897,-1.72045 5.15758,-4.44791 -0.83503,-4.36817 0.1749,-5.47011 4.18454,-4.56579 2.05733,0.464 3.81263,0.41517 4.14041,-0.11519 0.31295,-0.50636 0.0293,-0.79701 -0.63033,-0.64589 -1.8386,0.42124 -2.05058,-1.50147 -0.4057,-3.67973 1.38091,-1.82867 1.58385,-1.84658 3.15218,-0.27825 1.56833,1.56833 1.82995,1.40565 4.06364,-2.52683 2.77781,-4.89042 4.58232,-12.76186 2.85287,-12.44452 -0.68538,0.12577 -1.03153,-1.24853 -0.90184,-3.58048 0.14288,-2.56932 -0.14756,-3.56331 -0.90451,-3.09549 -0.68225,0.42165 -0.83415,0.23469 -0.39138,-0.48172 0.92376,-1.49468 2.52892,-0.52774 2.77361,1.67082 0.66784,6.00064 1.23936,-55.00663 0.819,-87.42506 -0.27896,-21.51382 -0.25917,-42.88882 0.044,-47.5 0.5718,-8.69761 -0.98754,-19.02942 -2.97186,-19.69086 C 665.48569,430.99523 665,430.40567 665,429.88296 c 0,-2.54921 -6.488,-7.40214 -6.81955,-5.10092 -0.17575,1.21988 -0.79074,2.21796 -1.36663,2.21796 -0.5759,0 -0.82844,-0.83609 -0.56121,-1.85797 C 656.86746,422.79083 655.34652,420 653.45031,420 652.65264,420 652,419.3801 652,418.62244 c 0,-0.75765 -0.67005,-1.93364 -1.48899,-2.6133 -0.81894,-0.67967 -1.30457,-1.53416 -1.07916,-1.89887 0.54059,-0.8747 -10.36272,-7.85595 -12.93185,-8.28009 -1.1,-0.1816 -2.225,-0.59692 -2.5,-0.92293 -1.35454,-1.60581 -6.97001,-1.78326 -7.82951,-0.24741 -1.10308,1.97109 -2.64808,0.0271 -1.77881,-2.23815 0.36135,-0.94168 -0.33595,-1.8948 -1.91139,-2.61262 C 621.11613,399.18751 620,398.10653 620,397.40687 c 0,-0.69965 -0.9,-1.55774 -2,-1.90687 -1.1,-0.34913 -2,-1.05445 -2,-1.56739 C 616,393.41968 615.47998,393 614.84439,393 c -0.63558,0 -2.54808,-1.05365 -4.25,-2.34145 -1.70191,-1.2878 -4.33189,-2.64637 -5.84439,-3.01905 -1.5125,-0.37268 -2.75689,-1.23153 -2.76531,-1.90855 -0.01,-0.79532 -0.35838,-0.7001 -0.98469,0.26905 -0.61308,0.94868 -0.975,1.0521 -0.98469,0.28138 -0.008,-0.67023 -0.67708,-0.96467 -1.48591,-0.65429 -0.80883,0.31038 -2.66952,-0.37874 -4.13486,-1.53138 C 592.9292,382.94307 591.1318,382 590.40033,382 c -0.73148,0 -1.81163,-0.9 -2.40033,-2 -0.5887,-1.1 -1.72953,-2 -2.53518,-2 C 584.65917,378 584,377.55 584,377 c 0,-0.55 -0.65917,-1 -1.46482,-1 -0.80565,0 -1.96516,-0.9349 -2.57669,-2.07756 -0.61153,-1.14266 -1.71512,-1.84607 -2.45242,-1.56314 -0.73731,0.28293 -1.60058,-0.1632 -1.91839,-0.99139 -0.39116,-1.01935 -1.3063,-1.30085 -2.83275,-0.87135 -1.50576,0.42366 -1.81981,0.33165 -0.94526,-0.27695 C 573.23856,369.22524 569.35116,366 566.72374,366 c -0.74064,0 -2.31265,-0.9 -3.49337,-2 -1.18071,-1.1 -2.77987,-2 -3.5537,-2 -0.77382,0 -2.56634,-0.91197 -3.98336,-2.02661 -2.87033,-2.25779 -9.74215,-5.46017 -11.01764,-5.13439 -0.45338,0.11581 -0.53736,-0.25377 -0.18662,-0.82129 0.35074,-0.56751 -0.17831,-1.32958 -1.17567,-1.69349 -0.99736,-0.36391 -3.32493,-1.96505 -5.17239,-3.55809 -1.84745,-1.59305 -4.00832,-2.64728 -4.80194,-2.34274 -0.79361,0.30453 -1.21476,0.18452 -0.9359,-0.26669 0.27887,-0.45122 -2.25079,-1.33326 -5.62146,-1.96011 -3.37068,-0.62684 -6.38797,-1.53438 -6.7051,-2.01675 -0.31712,-0.48237 -3.11628,-1.16848 -6.22035,-1.52469 -6.46014,-0.74133 -12.79997,0.13112 -10.6869,1.47067 0.98792,0.62628 0.81551,0.86868 -0.66934,0.9411 -4.27908,0.2087 -7.99047,1.10865 -8.59307,2.08367 -0.3468,0.56113 -0.91773,0.9818 -1.26873,0.93482 -2.28303,-0.30554 -3.61356,0.15911 -5.73519,2.00285 -1.32166,1.14854 -3.86551,2.70058 -5.65301,3.44897 -1.87717,0.78594 -3.25,2.08629 -3.25,3.07841 0,0.94473 -0.2961,1.4216 -0.65799,1.0597 -0.3619,-0.36189 -1.30989,-0.11696 -2.10665,0.54429 -3.68411,3.05754 -12.28344,7.13418 -14.48536,6.867 -0.9625,-0.11679 -1.75,0.26594 -1.75,0.85051 0,0.58457 -0.5625,1.09823 -1.25,1.14146 -0.6875,0.0432 -3.275,1.3842 -5.75,2.97993 -2.475,1.59572 -5.5125,3.34921 -6.75,3.89664 -1.2375,0.54743 -2.25,1.45647 -2.25,2.02008 0,0.56361 -0.69382,1.02475 -1.54181,1.02475 -1.85321,0 -5.94845,3.63312 -5.98231,5.30724 -0.0133,0.65602 -0.80077,1.13026 -1.75,1.05387 -0.95437,-0.0768 -1.72588,0.55649 -1.72588,1.41667 0,0.85555 -0.30098,1.25457 -0.66885,0.8867 -0.36787,-0.36786 -1.52034,0.10174 -2.56105,1.04357 -1.47974,1.33915 -2.06428,1.43399 -2.68164,0.43508 -0.60483,-0.97864 -1.96799,-0.61857 -5.82915,1.53976 C 408.36004,393.33438 404,396.07074 404,396.88723 c 0,0.47857 -1.3377,1.42422 -2.97267,2.10145 -1.63497,0.67722 -4.20139,2.37006 -5.70315,3.76185 -1.6308,1.51137 -2.88361,2.07119 -3.11067,1.39 C 391.76497,402.7949 389,402.58982 389,403.90217 c 0,0.4962 -1.2375,1.39646 -2.75,2.00057 -3.47915,1.38962 -9.15069,4.7722 -11.75,7.00784 -1.1,0.9461 -3.29464,2.52607 -4.87697,3.51105 -1.58233,0.98497 -3.36849,3.09305 -3.96923,4.68462 -0.60075,1.59156 -1.47576,2.89375 -1.94447,2.89375 -1.09748,0 -2.67436,1.64767 -5.74224,6 l -2.46709,3.5 -0.28942,75.83331 c -0.28854,75.60099 -0.28317,75.83495 1.75,76.36663 2.4087,0.62989 2.76396,4.43266 0.61488,6.58175 -1.71276,1.71276 -0.98208,9.45454 1.08767,11.5243 0.73528,0.73528 1.33687,1.97972 1.33687,2.76544 0,0.78571 0.45,1.42857 1,1.42857 0.55,0 1,0.6383 1,1.41844 0,1.9449 6.39914,5.74936 8.38726,4.98645 0.887,-0.34038 1.61274,-1.04728 1.61274,-1.5709 0,-0.52361 0.47081,-0.66105 1.04624,-0.30541 0.57543,0.35563 0.83929,1.95973 0.58634,3.56467 -0.25294,1.60493 -0.11195,2.70302 0.3133,2.4402 0.90785,-0.56108 6.03491,1.66307 6.04632,2.62293 0.004,0.36101 0.95903,0.40763 2.12165,0.1036 1.74259,-0.4557 2.00471,-0.20889 1.49242,1.40521 -0.48479,1.52742 0.20487,2.41727 3.13614,4.04647 2.06667,1.14866 5.55759,3.10869 7.75759,4.35562 7.06692,4.00542 10.96954,5.76056 11.74423,5.28178 0.41567,-0.2569 0.75577,0.17206 0.75577,0.95325 0,0.97581 0.78244,1.27077 2.5,0.94244 1.81931,-0.34778 2.5,-0.0447 2.5,1.11299 0,1.89529 5.57609,5.02229 7.18388,4.02862 0.65814,-0.40676 0.8486,-0.24793 0.45887,0.38266 -1.3201,2.13597 10.49856,8.45191 16.2849,8.70272 2.05279,0.089 3.60344,0.73135 3.83533,1.58882 0.31758,1.17431 0.19389,1.16315 -0.67154,-0.0606 -0.93147,-1.31711 -1.06268,-1.30553 -1.07613,0.095 -0.016,1.66915 1.78172,3.42467 5.98469,5.84412 2.95578,1.70151 12.28191,6.40153 13,6.55152 0.275,0.0574 2.075,1.113 4,2.3457 1.925,1.2327 4.7375,2.50505 6.25,2.82746 1.5125,0.3224 2.75,1.0065 2.75,1.52021 0,0.51371 0.45,0.6559 1,0.31598 0.55,-0.33992 1,-0.23962 1,0.22288 0,0.4625 1.192,0.93956 2.64889,1.06013 3.32088,0.27485 5.60765,2.10608 4.90771,3.93008 -0.32646,0.85076 0.66728,2.05304 2.55387,3.08979 1.69855,0.93341 4.97257,2.91344 7.27558,4.40006 4.31563,2.78577 10.49896,4.1042 12.74325,2.71715 1.75766,-1.08629 3.19319,-0.0136 1.96394,1.46756 -0.74801,0.9013 -0.12321,1.2689 2.45144,1.4423 2.53745,0.17089 3.45532,-0.17408 3.45532,-1.29862 z m -80.38691,-41.71431 c 0.28881,-0.4673 0.94401,-0.59075 1.45601,-0.27431 1.30838,0.80862 1.16106,1.12396 -0.52511,1.12396 -0.80081,0 -1.21971,-0.38234 -0.9309,-0.84965 z M 622,625 c 0,-0.55 0.45,-1 1,-1 0.55,0 1,0.45 1,1 0,0.55 -0.45,1 -1,1 -0.55,0 -1,-0.45 -1,-1 z m 25.5,-16 c -0.33992,-0.55 0.0835,-1 0.94098,-1 0.85746,0 1.55902,0.45 1.55902,1 0,0.55 -0.42344,1 -0.94098,1 -0.51754,0 -1.2191,-0.45 -1.55902,-1 z M 505,606.48732 c -10.7947,-5.74203 -18.36996,-8.86829 -18.7484,-7.73732 -0.63218,1.88928 -1.9531,1.49945 -2.54135,-0.75 -0.31292,-1.1966 -1.36401,-2 -2.61663,-2 C 479.89929,596 479,595.35569 479,594.5 c 0,-0.825 -0.87344,-1.5 -1.94098,-1.5 -1.06754,0 -2.2345,-0.47492 -2.59324,-1.05537 -0.35874,-0.58045 -1.39263,-0.91278 -2.29753,-0.73851 -0.90491,0.17426 -2.3999,-0.43777 -3.32222,-1.36009 -0.92232,-0.92232 -4.42881,-2.68032 -7.7922,-3.90667 -3.36339,-1.22636 -6.35721,-2.62122 -6.65293,-3.0997 -0.84954,-1.37459 -7.51149,-3.88934 -8.57015,-3.23506 -0.52623,0.32523 -1.71592,-0.0829 -2.64376,-0.90705 C 441.85497,577.51446 434.62006,574 433.51655,574 c -0.13156,0 -0.0114,1.19188 0.26711,2.64862 0.36469,1.90777 0.16698,2.43891 -0.70685,1.89885 -0.66723,-0.41237 -0.96507,-1.39629 -0.66184,-2.18647 0.79363,-2.06818 -2.13642,-2.84803 -4.98092,-1.3257 -3.01619,1.61421 -4.27879,0.54699 -2.57691,-2.17816 2.16657,-3.46921 0.1924,-3.49447 -2.51724,-0.0322 -2.36571,3.02283 -2.65004,3.13317 -3.84882,1.49375 -1.36033,-1.86037 -7.18826,-2.22338 -12.74108,-0.79362 -3.3091,0.85204 -3.60209,-1.14562 -1.28701,-8.77507 1.25859,-4.14772 1.25722,-4.75 -0.0108,-4.75 C 403.65348,560 403,559.55 403,559 c 0,-0.55 0.72314,-1 1.60699,-1 0.97196,0 1.39319,-0.55715 1.06595,-1.40992 -0.29757,-0.77545 -0.039,-3.04567 0.57458,-5.04492 l 1.11562,-3.63501 1.12936,2.76297 c 0.9476,2.3183 0.65736,4.18887 -1.80349,11.62301 -3.3159,10.01724 -2.87613,11.88623 2.18142,9.27088 2.58928,-1.33897 3.8506,-1.41425 7.6532,-0.45674 5.76422,1.45144 6.2559,-4.62973 1.20649,-14.92198 -0.85625,-1.7453 -0.83962,-2.78331 0.0679,-4.23643 1.45762,-2.33401 1.58343,-7.59809 0.20201,-8.45186 -0.59681,-0.36885 -1,-6.84372 -1,-16.05902 V 512 l 11.75,-0.21308 c 6.4625,-0.1172 14.225,-0.27079 17.25,-0.34133 5.26643,-0.1228 8,0.79187 8,2.67685 0,0.48266 -5.82344,0.87756 -12.94098,0.87756 -13.71728,0 -15.82739,0.70921 -11.8853,3.99467 2.61309,2.17782 1.85391,2.66405 -1.19074,0.76262 -5.00001,-3.12255 -9.21858,16.86425 -4.54579,21.53704 1.32545,1.32545 1.32966,1.65428 0.0349,2.72881 -1.69254,1.40468 -2.10854,16.17275 -0.56959,20.22048 1.02567,2.69773 7.7009,6.4801 22.43907,12.71459 5.41288,2.28974 13.96288,6.09855 19,8.46401 5.03712,2.36546 12.3084,5.78172 16.1584,7.59169 3.85,1.80997 12.11861,5.69728 18.37468,8.63847 14.29465,6.7204 10.72462,7.09047 33.12532,-3.43385 C 554.96225,587.43038 573.18962,579 573.5525,579 c 1.91749,0 25.29455,-11.64892 27.81599,-13.86086 2.31131,-2.02761 1.60852,-18.55577 -0.89647,-21.08299 -1.22396,-1.23482 -1.22958,-1.66912 -0.0388,-3 0.90274,-1.00897 1.45937,-4.36916 1.58303,-9.55615 0.26797,-11.24052 0.22751,-11.47429 -2.13737,-12.34911 -2.15171,-0.79597 10.56863,-7.77543 23.70704,-13.00771 15.52731,-6.18364 25.32953,-11.85297 24.05613,-13.91339 -0.49273,-0.79726 -7.55233,-4.44944 -12.14202,-6.2815 -1.1,-0.43908 -8.75,-3.94353 -17,-7.78766 -31.93722,-14.88132 -50.88087,-23.61311 -67.5,-31.11313 -5.775,-2.60619 -13.2,-6.11791 -16.5,-7.80383 -22.27231,-11.37855 -20.07552,-11.36822 -44.02642,-0.20691 -3.31454,1.5446 -11.46731,5.29791 -18.11728,8.3407 -6.64996,3.04278 -17.82931,8.25263 -24.84298,11.57744 -7.01368,3.3248 -12.91214,6.0451 -13.10769,6.0451 -0.3744,0 -3.90418,1.60648 -27.40563,12.47293 -7.975,3.68743 -16.075,7.3929 -18,8.23437 -1.925,0.84148 -4.87375,2.13058 -6.55277,2.86466 -5.36919,2.34745 -6.96839,4.85862 -4.22919,6.64094 2.57668,1.67657 18.82707,9.57143 26.03196,12.647 l 4.75,2.02764 v 16.8651 c 0,13.85556 -0.2809,17.21149 -1.57416,18.80623 -0.86578,1.06762 -1.3424,1.46467 -1.05915,0.88232 0.28326,-0.58234 0.75824,-8.68234 1.05552,-18 l 0.5405,-16.94119 -2.68072,-1.25 c -1.47439,-0.6875 -3.74256,-1.25 -5.04037,-1.25 -1.31846,0 -2.08695,-0.44125 -1.74162,-1 0.33992,-0.55 -0.30852,-1 -1.44098,-1 C 395.92656,507 395,506.58575 395,506.07946 c 0,-0.5063 -1.35,-1.21706 -3,-1.57946 -1.65,-0.3624 -3,-1.05509 -3,-1.53931 0,-0.48423 -1.9125,-1.43535 -4.25,-2.11361 -12.7565,-3.7015 -12.30548,-11.5025 0.91948,-15.90348 3.48178,-1.15866 6.33052,-2.46989 6.33052,-2.91384 0,-0.44395 1.59865,-1.10709 3.55256,-1.47364 1.9539,-0.36656 3.78915,-1.28304 4.07833,-2.03663 0.28918,-0.75359 2.29945,-1.66982 4.46727,-2.03607 2.16781,-0.36625 4.49506,-1.1926 5.17166,-1.83633 1.488,-1.41571 6.80148,-4.04222 8.33686,-4.121 0.60868,-0.0312 2.63368,-0.80131 4.5,-1.71127 1.86633,-0.90997 7.44332,-3.54564 12.39332,-5.85706 4.95,-2.31141 9.24453,-4.58612 9.54341,-5.05491 0.29887,-0.46879 1.42387,-0.99923 2.5,-1.17875 1.07612,-0.17952 3.53159,-1.02487 5.45659,-1.87856 1.925,-0.85368 5.975,-2.60862 9,-3.89988 3.025,-1.29125 6.21043,-2.93226 7.07874,-3.6467 0.86831,-0.71443 2.03879,-1.29896 2.60106,-1.29896 0.56228,0 3.13816,-1.125 5.72418,-2.5 2.58601,-1.375 5.28329,-2.5 5.99395,-2.5 0.71065,0 2.1101,-0.90389 3.10988,-2.00864 0.99979,-1.10474 3.65703,-2.54463 5.90499,-3.19973 2.24796,-0.65511 4.4366,-1.75754 4.86365,-2.44984 0.42704,-0.6923 1.41193,-1.01486 2.18864,-0.71681 0.77671,0.29805 3.72678,-0.62064 6.55571,-2.04154 5.21275,-2.61821 9.41452,-3.30613 10.40499,-1.70351 0.48954,0.79208 9.36973,4.08165 12.22333,4.52799 0.63201,0.0989 1.8479,0.75968 2.70196,1.46849 0.85406,0.70881 2.36196,1.12408 3.35088,0.92283 1.11707,-0.22733 2.42478,0.63812 3.45289,2.28514 0.91017,1.45807 2.93517,2.96711 4.5,3.35342 2.99682,0.73982 17.78443,6.99561 20.34515,8.60687 3.73556,2.35049 20.76679,9.95533 22.2952,9.95533 0.68229,0 2.89612,1.125 4.91961,2.5 2.0235,1.375 4.5764,2.5 5.67312,2.5 1.09672,0 2.27215,0.45 2.61207,1 0.33992,0.55 1.66833,1 2.95203,1 1.2837,0 2.60407,0.70381 2.93416,1.56401 0.33009,0.86021 1.39074,1.4303 2.35699,1.26686 2.11514,-0.35776 8.48577,2.53515 10.2415,4.65068 0.69312,0.83515 2.07855,1.51845 3.07875,1.51845 1.00019,0 2.12503,0.49592 2.49963,1.10203 0.75149,1.21594 6.84206,4.05404 9.85846,4.59388 1.05683,0.18914 2.46229,0.7927 3.12325,1.34124 0.66095,0.54855 2.04627,0.72214 3.07848,0.38577 1.54879,-0.50471 1.61463,-0.42303 0.37675,0.46743 -1.25209,0.90069 -1.13789,1.08156 0.69098,1.09434 1.20504,0.008 2.43701,0.41339 2.73771,0.89992 0.30069,0.48654 2.54526,1.18431 4.98793,1.55062 4.41278,0.66173 4.43763,0.68808 3.88145,4.11538 -0.41047,2.52944 -0.19149,3.45826 0.82109,3.48266 0.86067,0.0207 0.49401,0.77213 -0.97332,1.99464 -1.29479,1.07875 -2.77598,1.70067 -3.29153,1.38205 -1.02028,-0.63057 -17.95233,7.2763 -18.99251,8.86904 -0.351,0.53748 -1.1385,0.66802 -1.75,0.2901 C 625.50031,507.19118 625,507.35852 625,507.94098 625,508.52344 624.1368,509 623.08179,509 c -2.76426,0 -5.15473,1.07296 -4.55443,2.04426 0.28372,0.45909 -0.28136,0.84842 -1.25575,0.86519 -3.94755,0.0679 -8.16836,1.37909 -8.673,2.69418 -0.29471,0.76801 -0.1,1.39637 0.43277,1.39637 1.62054,0 1.08021,2.7432 -0.67282,3.4159 -1.37248,0.52667 -1.43434,0.38034 -0.37756,-0.89301 1.03879,-1.25167 0.98978,-1.52289 -0.27522,-1.52289 -2.14814,0 -2.46888,1.51348 -1.95914,9.24467 0.36226,5.49435 0.1525,6.8568 -1.13153,7.34953 -1.83371,0.70366 -1.80141,4.6845 0.0679,8.36765 0.73043,1.43919 0.8654,2.69922 0.3249,3.03326 -0.5085,0.31428 -0.85285,5.06556 -0.76522,10.55841 0.17,10.65562 -0.34875,12.72674 -2.93875,11.73287 -1.09093,-0.41863 -1.39229,-0.23838 -0.90896,0.54367 0.39769,0.64347 0.3093,1.16994 -0.19641,1.16994 -0.5057,0 -2.58841,1.13258 -4.62824,2.51684 -2.03982,1.38426 -4.46511,2.67338 -5.38954,2.86472 -3.8332,0.79338 -8.14167,2.87271 -7.6387,3.68653 0.57351,0.92795 -1.98961,1.74489 -7.26208,2.31463 -1.771,0.19137 -4.3585,1.09392 -5.75,2.00567 -1.3915,0.91174 -2.53,1.39355 -2.53,1.07068 0,-0.32287 -1.81345,0.43217 -4.02988,1.67788 -2.63883,1.4831 -3.83907,2.76217 -3.47711,3.70543 0.40569,1.0572 0.21407,1.16967 -0.72012,0.42265 -1.42376,-1.13851 -4.95092,-0.21508 -4.86625,1.27401 0.03,0.52853 -0.72416,0.98692 -1.67601,1.01864 -3.24553,0.10817 -7.66012,1.76454 -9.65416,3.62227 -1.09479,1.01995 -3.65109,2.3016 -5.68067,2.84811 -2.02959,0.54651 -3.90794,1.56119 -4.17412,2.25485 -0.26618,0.69366 -1.67745,1.35998 -3.13616,1.4807 -1.4587,0.12073 -4.09969,0.98589 -5.86885,1.92258 -1.76917,0.93669 -4.10705,1.85336 -5.19528,2.03705 -1.08824,0.1837 -2.41574,0.77111 -2.95,1.30537 -1.36411,1.36411 -7.58851,1.0454 -10.57139,-0.54129 z M 358.07895,596.41667 c 0.048,-1.16495 0.28494,-1.4019 0.60416,-0.60417 0.28887,0.72187 0.25335,1.58438 -0.0789,1.91667 -0.33229,0.33229 -0.56864,-0.25834 -0.52522,-1.3125 z m 306.58772,-2.08334 C 663.7467,593.41337 663.82443,589 664.7606,589 c 0.41832,0 0.81576,1.35 0.88319,3 0.1308,3.20056 0.0598,3.37021 -0.97712,2.33333 z M 661.19495,579.5 c 0.0204,-1.65 0.2445,-2.20394 0.49804,-1.23097 0.25354,0.97297 0.23687,2.32297 -0.0371,3 -0.27393,0.67703 -0.48137,-0.11903 -0.46099,-1.76903 z m 5.18275,-11.74584 c 0.0673,-4.26021 0.4598,-7.74771 0.8723,-7.75 0.93574,-0.005 0.77265,8.46419 -0.24062,12.49584 -0.51146,2.03502 -0.71465,0.50848 -0.63168,-4.74584 z M 630.5,507 c -0.33992,-0.55 0.11008,-1 1,-1 0.88992,0 1.33992,0.45 1,1 -0.33992,0.55 -0.78992,1 -1,1 -0.21008,0 -0.66008,-0.45 -1,-1 z m 7.5,-4 c 0,-0.55 0.47656,-1 1.05902,-1 0.58246,0 0.7809,0.45 0.44098,1 -0.33992,0.55 -0.81648,1 -1.05902,1 C 638.19844,504 638,503.55 638,503 Z m 27.5925,-14.80923 c -0.86955,-7.87204 -0.75091,-8.52474 1.31717,-7.2466 1.07459,0.66413 1.1609,2.24202 0.42097,7.69563 l -0.93077,6.8602 z m -12.982,-1.76342 c -0.42084,-1.09668 -0.1,-1.475 1.06014,-1.25 0.915,0.17746 1.85092,0.88515 2.07983,1.57265 0.6122,1.83866 -2.43058,1.526 -3.13997,-0.32265 z"
         id="path313" />
      <path
         style="fill:#2a4372"
         d="m 509.76166,695.29274 c 1.24391,-0.23919 3.04391,-0.23011 4,0.0202 0.95609,0.25029 -0.0617,0.446 -2.26166,0.4349 -2.2,-0.0111 -2.98225,-0.21589 -1.73834,-0.45508 z M 363.43709,613.75 360.5,610.5 l 3.25,2.93709 c 3.02946,2.73778 3.70965,3.56291 2.93709,3.56291 -0.1721,0 -1.6346,-1.4625 -3.25,-3.25 z M 660.5,613 c 0.99549,-1.1 2.03498,-2 2.30998,-2 0.275,0 -0.31449,0.9 -1.30998,2 -0.99549,1.1 -2.03498,2 -2.30998,2 -0.275,0 0.31449,-0.9 1.30998,-2 z M 521.22619,602.42128 c 0.94941,-0.99123 1.94144,-1.58698 2.20452,-1.3239 0.26308,0.26308 -0.5137,1.07408 -1.72619,1.80223 -2.10631,1.26492 -2.12762,1.24361 -0.47833,-0.47833 z M 499,601 c -0.90129,-0.58246 -1.02463,-0.97549 -0.30902,-0.98469 0.65504,-0.008 1.4691,0.43469 1.80902,0.98469 0.7673,1.24153 0.42112,1.24153 -1.5,0 z m -10.49292,-4.98855 c -0.35034,-0.56686 0.0511,-0.7345 0.94098,-0.39301 1.73242,0.66479 2.04939,1.38156 0.61096,1.38156 -0.51754,0 -1.21592,-0.44485 -1.55194,-0.98855 z m -11,-5 c -0.35034,-0.56686 0.0511,-0.7345 0.94098,-0.39301 1.73242,0.66479 2.04939,1.38156 0.61096,1.38156 -0.51754,0 -1.21592,-0.44485 -1.55194,-0.98855 z M 473,589 c -0.825,-0.53316 -1.05,-0.96937 -0.5,-0.96937 0.55,0 1.675,0.43621 2.5,0.96937 0.825,0.53316 1.05,0.96937 0.5,0.96937 -0.55,0 -1.675,-0.43621 -2.5,-0.96937 z m 198.47475,-72.5 c 9e-5,-40.7 0.12381,-57.20428 0.27495,-36.67618 0.15113,20.52809 0.15106,53.82809 -1.6e-4,74 -0.15122,20.1719 -0.27488,3.37618 -0.27479,-37.32382 z m -319.00245,6 c 10e-5,-36.85 0.12491,-51.7797 0.27733,-33.17711 0.15243,18.60259 0.15235,48.75259 -1.9e-4,67 C 352.59691,574.5703 352.47219,559.35 352.4723,522.5 Z m 114.03478,63.51145 c -0.35034,-0.56686 0.0511,-0.7345 0.94098,-0.39301 1.73242,0.66479 2.04939,1.38156 0.61096,1.38156 -0.51754,0 -1.21592,-0.44485 -1.55194,-0.98855 z m -3.52608,-1.53434 c -1.05678,-1.27335 -0.99492,-1.41968 0.37756,-0.89301 0.90279,0.34643 1.64144,1.03173 1.64144,1.52289 0,1.28596 -0.57887,1.10536 -2.019,-0.62988 z m 96.10233,0.15834 c 0.22917,-0.2005 1.54167,-0.90032 2.91667,-1.55516 2.35727,-1.12265 2.38918,-1.10183 0.55887,0.36454 -1.593,1.27626 -4.84786,2.39128 -3.47554,1.19062 z M 507,579.91757 l -2.5,-2.03796 3,1.42299 c 1.65,0.78264 3.675,1.67421 4.5,1.98125 1.07208,0.399 0.92944,0.57443 -0.5,0.61497 -1.1,0.0312 -3.125,-0.86037 -4.5,-1.98125 z m 60,1.63379 c 0,-0.275 1.35,-1.19811 3,-2.05136 1.65,-0.85325 3,-1.32636 3,-1.05136 0,0.275 -1.35,1.19811 -3,2.05136 -1.65,0.85325 -3,1.32636 -3,1.05136 z m -113.49292,-1.53991 c -0.35034,-0.56686 0.0511,-0.7345 0.94098,-0.39301 1.73242,0.66479 2.04939,1.38156 0.61096,1.38156 -0.51754,0 -1.21592,-0.44485 -1.55194,-0.98855 z m 48,-3 c -0.35034,-0.56686 0.0511,-0.7345 0.94098,-0.39301 1.73242,0.66479 2.04939,1.38156 0.61096,1.38156 -0.51754,0 -1.21592,-0.44485 -1.55194,-0.98855 z m -4.06595,-1.56662 c -1.86402,-1.49339 -1.85176,-1.51185 0.30887,-0.46481 1.2375,0.59969 2.25,1.29951 2.25,1.55516 0,0.76522 -0.51861,0.54424 -2.55887,-1.09035 z m -6.75187,-2.55892 c -0.9959,-0.5793 -2.43549,-0.81353 -3.19907,-0.52052 -0.87987,0.33764 -1.19628,0.0323 -0.86393,-0.83382 0.47413,-1.23556 6.34942,0.23392 8.29041,2.07353 0.90197,0.85486 -2.52311,0.27217 -4.22741,-0.71919 z m -86.25675,-1.20119 c -0.2776,-0.72341 -0.0281,-2.41091 0.55438,-3.75 1.00925,-2.3201 1.03176,-2.29795 0.47812,0.47042 -0.37106,1.85542 -0.10837,3.20489 0.727,3.73469 1.04231,0.66105 1.04772,0.83265 0.0266,0.84486 -0.70477,0.008 -1.50851,-0.57657 -1.78611,-1.29997 z M 414.5,570.44104 c -3.99989,-1.40522 -3.9999,-1.40525 -0.53125,-0.9044 1.90781,0.27547 3.91031,0.94242 4.45,1.48211 1.19578,1.19578 1.08143,1.17893 -3.91875,-0.57771 z m 67.5,-0.83377 c 0,-0.66302 -1.6875,-1.81832 -3.75,-2.56733 -2.0625,-0.74901 -3.22181,-1.54047 -2.57625,-1.75881 0.64557,-0.21833 3.30063,0.68395 5.90015,2.00506 4.07003,2.06845 4.4278,2.4801 2.57625,2.96429 -1.32207,0.34573 -2.15015,0.098 -2.15015,-0.64321 z m 107,1.00936 c 0,-0.21085 0.90062,-0.61888 2.00138,-0.90674 1.10076,-0.28785 1.7492,-0.11534 1.44098,0.38337 C 591.90411,570.96417 589,571.4057 589,570.61663 Z m -161.49292,-2.60518 c -0.35034,-0.56686 0.0511,-0.7345 0.94098,-0.39301 1.73242,0.66479 2.04939,1.38156 0.61096,1.38156 -0.51754,0 -1.21592,-0.44485 -1.55194,-0.98855 z m -7.93565,-2.58288 c -0.36782,-1.46551 -0.47591,-2.85742 -0.24019,-3.09314 0.23571,-0.23571 0.72951,0.77049 1.09733,2.236 0.36782,1.46551 0.47591,2.85742 0.24019,3.09314 -0.23571,0.23571 -0.72951,-0.77049 -1.09733,-2.236 z M 598.25,566.42803 C 601.47263,564.67972 602.71891,545 599.60699,545 c -0.76616,0 -1.65261,-0.6765 -1.96989,-1.50332 -0.49133,-1.28039 -0.2106,-1.26333 1.89301,0.11501 5.5371,3.62804 2.95327,24.58035 -3.00262,24.34827 -0.56512,-0.022 0.21001,-0.71139 1.72251,-1.53193 z m -128.68571,-2.72116 c 0.37553,-0.98622 0.93469,-1.54122 1.24258,-1.23333 0.30789,0.30789 6.4e-4,1.11479 -0.68278,1.79313 -0.98762,0.98026 -1.10248,0.8654 -0.5598,-0.5598 z M 422.27236,559 c 0,-2.475 0.19502,-3.4875 0.43337,-2.25 0.23836,1.2375 0.23836,3.2625 0,4.5 -0.23835,1.2375 -0.43337,0.225 -0.43337,-2.25 z m 40.97141,3.33536 c -0.69093,-0.2784 -0.95461,-0.99422 -0.58596,-1.59071 0.42639,-0.68991 0.0648,-0.85218 -0.99377,-0.44597 C 460.74882,560.64988 460,560.4748 460,559.9096 c 0,-0.5652 -0.5625,-0.70393 -1.25,-0.30829 -0.6875,0.39564 -0.9164,0.3511 -0.50868,-0.099 0.40773,-0.45007 0.23158,-1.43252 -0.39144,-2.18321 -0.89525,-1.07871 -0.78858,-1.23283 0.50868,-0.73502 0.90279,0.34643 1.64144,1.05829 1.64144,1.58191 0,0.52361 0.41372,0.69633 0.91938,0.38382 0.50566,-0.31252 1.57709,0.0895 2.38095,0.89336 0.80387,0.80386 1.70639,1.21675 2.00562,0.91753 0.29922,-0.29923 1.3653,-0.0665 2.36905,0.51721 1.00375,0.58369 1.2993,1.07494 0.65679,1.09166 -0.64252,0.0167 -1.76752,0.21976 -2.5,0.45118 -0.73249,0.23143 -1.89709,0.19299 -2.58802,-0.0854 z m -56.1879,-0.97055 c -0.0307,-0.62435 0.57813,-2.64304 1.35303,-4.48597 0.95075,-2.26119 1.1019,-3.9244 0.46481,-5.11481 C 408.35447,550.79381 408.15463,550 408.42963,550 c 1.91091,0 2.16593,3.95232 0.5162,8 -1.00875,2.475 -1.85923,3.98916 -1.88996,3.36481 z m 11.06013,-1.03302 c -0.0638,-0.64252 -0.40723,-1.99252 -0.76318,-3 -0.50214,-1.42127 -0.36907,-1.57546 0.59378,-0.68801 0.68253,0.62908 1.02596,1.97908 0.76318,3 -0.26278,1.02092 -0.52998,1.33052 -0.59378,0.68801 z M 506,555 c -3.93036,-2.15178 -5.41586,-2.48189 -4.5,-1 0.78218,1.2656 -0.54163,1.2656 -2.5,0 -1.2718,-0.8219 -1.22479,-0.9717 0.30902,-0.98469 1.03181,-0.009 1.52393,-0.47658 1.14546,-1.08897 -0.36496,-0.59051 1.29599,-0.0726 3.69098,1.15083 2.395,1.22346 5.47954,2.56793 6.85454,2.9877 2.00201,0.61119 2.10161,0.772 0.5,0.80726 -1.1,0.0242 -3.575,-0.81824 -5.5,-1.87213 z m -83.72764,-5 c 0,-2.475 0.19502,-3.4875 0.43337,-2.25 0.23836,1.2375 0.23836,3.2625 0,4.5 -0.23835,1.2375 -0.43337,0.225 -0.43337,-2.25 z m -5.61818,2 c 0.6348,-0.825 1.36102,-2.625 1.61382,-4 l 0.45964,-2.5 0.13618,2.62756 c 0.0751,1.44834 -0.6492,3.24349 -1.61382,4 -1.5226,1.1941 -1.60002,1.17752 -0.59582,-0.12756 z M 441,551.89035 c -1.29673,-0.93279 -1.27936,-1.00906 0.12814,-0.56283 0.89548,0.28391 2.22378,-0.0111 2.95178,-0.65566 1.09688,-0.97112 1.09678,-0.87208 -5.9e-4,0.57814 -0.72832,0.9625 -1.38162,1.74311 -1.45177,1.73469 -0.0702,-0.008 -0.80256,-0.50087 -1.62756,-1.09434 z M 531,550 c 1.925,-1.05389 3.95,-1.91617 4.5,-1.91617 0.55,0 -0.575,0.86228 -2.5,1.91617 -1.925,1.05389 -3.95,1.91617 -4.5,1.91617 -0.55,0 0.575,-0.86228 2.5,-1.91617 z m -94.18535,-0.13572 c -0.72306,-0.45851 -0.92205,-0.84055 -0.44221,-0.84897 0.47985,-0.008 0.25485,-0.76398 -0.5,-1.67903 -1.25907,-1.52629 -1.16594,-1.55092 1.12756,-0.29809 1.375,0.75109 3.10373,1.466 3.84163,1.58868 2.40156,0.39928 2.29652,1.11357 -0.23493,1.59748 -1.36258,0.26048 -3.069,0.0984 -3.79205,-0.36007 z M 582,549 c 0.825,-0.53316 1.95,-0.96937 2.5,-0.96937 0.55,0 0.325,0.43621 -0.5,0.96937 -0.825,0.53316 -1.95,0.96937 -2.5,0.96937 -0.55,0 -0.325,-0.43621 0.5,-0.96937 z m -150.25,-1.16228 c -1.5125,-0.55241 -2.75,-1.44344 -2.75,-1.98007 0,-0.53663 -0.45,-0.69757 -1,-0.35765 -0.55,0.33992 -1,0.18361 -1,-0.34736 0,-0.53097 -1.0125,-0.74349 -2.25,-0.47227 -1.75074,0.3837 -1.92598,0.26553 -0.78976,-0.53257 1.2527,-0.87993 1.18164,-1.34062 -0.5,-3.24155 L 421.5,538.6904 l 3,1.84038 c 1.65,1.01221 3.77749,2.76937 4.72776,3.9048 0.95027,1.13543 1.73777,1.51604 1.75,0.8458 0.0125,-0.68448 0.69861,-0.95906 1.56537,-0.62646 0.84872,0.32569 1.30262,0.83266 1.00867,1.12661 -0.29394,0.29395 -0.0333,1.13836 0.57932,1.87646 1.26924,1.52934 1.30642,1.52653 -2.38112,0.17973 z m -22.93325,-19.62677 c 0.31289,-17.38765 0.28858,-17.62393 -2,-19.43371 l -2.31675,-1.83206 2.75,1.18793 2.75,1.18792 v 17.78047 c 0,9.77926 -0.3375,17.98986 -0.75,18.24578 -0.4125,0.25592 -0.60746,-7.45543 -0.43325,-17.13633 z m 7.84992,16.12238 c -0.92438,-0.92437 -0.84336,-33.33299 0.0833,-33.33477 0.4125,-7.9e-4 0.6151,7.01361 0.45023,15.58757 -0.20865,10.85023 0.0566,16.01836 0.87244,17.00144 1.15131,1.38724 -0.10053,2.05123 -1.406,0.74576 z M 479.75,542.93191 c -2.0625,-1.08883 -3.75,-2.16864 -3.75,-2.39957 0,-0.40441 9.06635,3.34159 9.91667,4.09734 1.31089,1.16509 -2.9831,-0.0171 -6.16667,-1.69777 z M 601.36523,530.5 c 0.003,-5.5 0.17053,-7.62242 0.37317,-4.71648 0.20265,2.90594 0.20052,7.40594 -0.005,10 C 601.52842,538.37758 601.36263,536 601.36523,530.5 Z M 468,537.03138 c 0,-0.53273 0.675,-0.70959 1.5,-0.39301 0.825,0.31659 1.5,0.75246 1.5,0.96862 0,0.21615 -0.675,0.39301 -1.5,0.39301 -0.825,0 -1.5,-0.43588 -1.5,-0.96862 z m -10.24258,-4.10733 c -0.95842,-0.55832 -2.30842,-0.94132 -3,-0.85111 -3.23182,0.42157 -4.33468,-0.0484 -2.75742,-1.175 1.2051,-0.86079 1.05765,-0.97448 -0.75,-0.57831 -1.2375,0.27122 -2.25,0.0587 -2.25,-0.47227 0,-0.53097 -0.51953,-0.64431 -1.15451,-0.25187 -0.7153,0.44208 -0.88306,0.27432 -0.44098,-0.44098 0.66868,-1.08195 -0.76905,-1.56289 -4.22118,-1.41204 -0.72416,0.0316 -1.06557,-0.19357 -0.75867,-0.50046 1.29874,-1.29875 -1.66772,-3.28518 -3.11376,-2.08507 -1.10985,0.92109 -1.35619,0.89625 -1.11732,-0.11267 0.16853,-0.71185 -0.31872,-1.5214 -1.08278,-1.799 -0.85877,-0.31202 -1.11941,-0.0682 -0.68262,0.63853 0.38862,0.62879 -0.85344,0.34967 -2.76014,-0.62027 -1.90669,-0.96994 -3.29091,-1.94713 -3.07605,-2.17152 0.21486,-0.2244 -0.13117,-1.03675 -0.76895,-1.80524 -0.98258,-1.18393 -0.75225,-1.21164 1.50867,-0.18149 1.46756,0.66866 2.66829,1.49776 2.66829,1.84243 0,0.34468 0.7875,0.68931 1.75,0.76587 2.39506,0.19048 27.12599,12.1179 25.25,12.17775 -0.825,0.0263 -2.28416,-0.40896 -3.24258,-0.96728 z M 422.25218,524.5 c 0.0111,-2.2 0.21589,-2.98225 0.45508,-1.73834 0.23919,1.24391 0.23011,3.04391 -0.0202,4 -0.25029,0.95609 -0.446,-0.0617 -0.4349,-2.26166 z M 427,517 c 0,-0.55 0.47656,-1 1.05902,-1 0.58246,0 0.7809,0.45 0.44098,1 -0.33992,0.55 -0.81648,1 -1.05902,1 C 427.19844,518 427,517.55 427,517 Z m 181,-5 c 0.825,-0.53316 1.95,-0.96937 2.5,-0.96937 0.55,0 0.325,0.43621 -0.5,0.96937 -0.825,0.53316 -1.95,0.96937 -2.5,0.96937 -0.55,0 -0.325,-0.43621 0.5,-0.96937 z m 9,-4 c 1.925,-1.05389 3.95,-1.91617 4.5,-1.91617 0.55,0 -0.575,0.86228 -2.5,1.91617 -1.925,1.05389 -3.95,1.91617 -4.5,1.91617 -0.55,0 0.575,-0.86228 2.5,-1.91617 z M 376.67534,494.34201 c -0.83909,-0.8391 1.20734,-3.35178 2.6971,-3.3116 0.62016,0.0167 0.28607,0.5193 -0.74242,1.11683 -1.50989,0.87722 -1.60617,1.25354 -0.5,1.95428 0.75349,0.47732 0.88248,0.87475 0.28665,0.88317 -0.59584,0.008 -1.37943,-0.28079 -1.74133,-0.64268 z M 644,491 c -0.90129,-0.58246 -1.02463,-0.97549 -0.30902,-0.98469 0.65504,-0.008 1.4691,0.43469 1.80902,0.98469 0.7673,1.24153 0.42112,1.24153 -1.5,0 z m -263,-0.2992 c 0,-0.91561 4.02729,-3.46566 4.434,-2.80758 0.27681,0.44788 -0.6076,1.32048 -1.96536,1.93911 C 382.11089,490.45097 381,490.84178 381,490.7008 Z m 9.44113,-5.14563 C 391.50875,484.69982 392.82125,484 393.3578,484 c 1.27054,0 0.70323,0.4619 -2.3578,1.91971 -2.35727,1.12265 -2.38918,1.10183 -0.55887,-0.36454 z M 631,485 c -0.90129,-0.58246 -1.02463,-0.97549 -0.30902,-0.98469 0.65504,-0.008 1.4691,0.43469 1.80902,0.98469 0.7673,1.24153 0.42112,1.24153 -1.5,0 z m -8,-3.5 c -2.475,-1.32529 -4.05,-2.40963 -3.5,-2.40963 0.55,0 3.025,1.08434 5.5,2.40963 2.475,1.32529 4.05,2.40963 3.5,2.40963 -0.55,0 -3.025,-1.08434 -5.5,-2.40963 z m -220.23155,-1.66845 c 0.5811,-0.5811 1.64682,-0.85979 2.36826,-0.61931 0.74895,0.24965 0.29565,0.70294 -1.05655,1.05655 -1.66335,0.43497 -2.05378,0.30483 -1.31171,-0.43724 z M 410,476.71603 c 0.825,-0.82576 2.625,-1.83058 4,-2.23293 3.17711,-0.92969 2.46086,-0.21401 -2,1.99843 -2.69994,1.33908 -3.15712,1.39268 -2,0.2345 z m 12.73333,-5.84012 c 0.67834,-0.68342 1.48524,-0.99067 1.79313,-0.68278 0.30789,0.30789 -0.24711,0.86705 -1.23333,1.24258 -1.4252,0.54268 -1.54006,0.42782 -0.5598,-0.5598 z M 600,471 c -0.90129,-0.58246 -1.02463,-0.97549 -0.30902,-0.98469 0.65504,-0.008 1.4691,0.43469 1.80902,0.98469 0.7673,1.24153 0.42112,1.24153 -1.5,0 z m -172,-2.64226 c 0,-0.67599 9.08869,-4.60238 9.56075,-4.13032 0.217,0.21699 -1.8454,1.34088 -4.58311,2.49753 -2.7377,1.15664 -4.97764,1.8914 -4.97764,1.63279 z M 587,465 c -0.90129,-0.58246 -1.02463,-0.97549 -0.30902,-0.98469 0.65504,-0.008 1.4691,0.43469 1.80902,0.98469 0.7673,1.24153 0.42112,1.24153 -1.5,0 z m -132.5,-9 c 0.33992,-0.55 0.81648,-1 1.05902,-1 0.24254,0 0.44098,0.45 0.44098,1 0,0.55 -0.47656,1 -1.05902,1 -0.58246,0 -0.7809,-0.45 -0.44098,-1 z m 7.23333,-3.12409 c 0.67834,-0.68342 1.48524,-0.99067 1.79313,-0.68278 0.30789,0.30789 -0.24711,0.86705 -1.23333,1.24258 -1.4252,0.54268 -1.54006,0.42782 -0.5598,-0.5598 z M 352.19495,446.5 c 0.0204,-1.65 0.2445,-2.20394 0.49804,-1.23097 0.25354,0.97297 0.23687,2.32297 -0.0371,3 -0.27393,0.67703 -0.48137,-0.11903 -0.46099,-1.76903 z M 548,447 c -0.90129,-0.58246 -1.02463,-0.97549 -0.30902,-0.98469 0.65504,-0.008 1.4691,0.43469 1.80902,0.98469 0.7673,1.24153 0.42112,1.24153 -1.5,0 z m -70,-1.5351 c 0,-0.83671 8.17225,-4.57415 9.23049,-4.2214 0.5946,0.1982 -1.23901,1.32455 -4.0747,2.50301 C 480.32011,444.92497 478,445.69825 478,445.4649 Z m 60.5,-2.92879 c -1.65,-0.75552 -2.29851,-1.41022 -1.44113,-1.45489 0.85738,-0.0447 2.43238,0.57947 3.5,1.38698 2.41085,1.82347 1.81784,1.84303 -2.05887,0.0679 z m -31.76667,-10.6602 c 0.67834,-0.68342 1.48524,-0.99067 1.79313,-0.68278 0.30789,0.30789 -0.24711,0.86705 -1.23333,1.24258 -1.4252,0.54268 -1.54006,0.42782 -0.5598,-0.5598 z m 4.01667,-1.53819 c 0.6875,-0.27741 1.8125,-0.27741 2.5,0 0.6875,0.27741 0.125,0.50439 -1.25,0.50439 -1.375,0 -1.9375,-0.22698 -1.25,-0.50439 z M 665,425 c -0.5887,-1.1 -0.84537,-2 -0.57037,-2 0.275,0 0.98167,0.9 1.57037,2 0.5887,1.1 0.84537,2 0.57037,2 -0.275,0 -0.98167,-0.9 -1.57037,-2 z M 400,395.60699 c 0,-0.21616 0.69837,-0.661 1.55194,-0.98855 0.88992,-0.34149 1.29132,-0.17385 0.94098,0.39301 C 401.90566,395.96166 400,396.4169 400,395.60699 Z m 109.26375,-58.32457 c 1.52006,-0.22986 3.77006,-0.22371 5,0.0136 1.22994,0.23736 -0.0137,0.42542 -2.76375,0.41792 -2.75,-0.008 -3.75631,-0.20172 -2.23625,-0.43157 z"
         id="path312" />
      <path
         style="fill:#1d386b"
         d="m 499,693 c -1.82797,-1.18132 -0.24909,-1.18132 2.5,0 1.31874,0.56668 1.48906,0.87815 0.5,0.9144 -0.825,0.0302 -2.175,-0.38124 -3,-0.9144 z m 23.5,0 c 2.74909,-1.18132 4.32797,-1.18132 2.5,0 -0.825,0.53316 -2.175,0.94464 -3,0.9144 -0.98906,-0.0362 -0.81874,-0.34772 0.5,-0.9144 z m -15.05887,-87.55517 c -1.83031,-1.46637 -1.7984,-1.48719 0.55887,-0.36454 3.06103,1.45781 3.62834,1.91971 2.3578,1.91971 -0.53655,0 -1.84905,-0.69982 -2.91667,-1.55517 z M 502,603 c -0.825,-0.53316 -1.05,-0.96937 -0.5,-0.96937 0.55,0 1.675,0.43621 2.5,0.96937 0.825,0.53316 1.05,0.96937 0.5,0.96937 -0.55,0 -1.675,-0.43621 -2.5,-0.96937 z m 22.73333,-2.12409 c 0.67834,-0.68342 1.48524,-0.99067 1.79313,-0.68278 0.30789,0.30789 -0.24711,0.86705 -1.23333,1.24258 -1.4252,0.54268 -1.54006,0.42782 -0.5598,-0.5598 z m -29.22625,-0.86446 c -0.35034,-0.56686 0.0511,-0.7345 0.94098,-0.39301 1.73242,0.66479 2.04939,1.38156 0.61096,1.38156 -0.51754,0 -1.21592,-0.44485 -1.55194,-0.98855 z M 491,598 c -0.825,-0.53316 -1.05,-0.96937 -0.5,-0.96937 0.55,0 1.675,0.43621 2.5,0.96937 0.825,0.53316 1.05,0.96937 0.5,0.96937 -0.55,0 -1.675,-0.43621 -2.5,-0.96937 z m 39,0.60699 c 0,-0.21616 0.69837,-0.661 1.55194,-0.98855 0.88992,-0.34149 1.29132,-0.17385 0.94098,0.39301 C 531.90566,598.96166 530,599.4169 530,598.60699 Z m -45.89577,-3.69853 c -2.41767,-1.07264 -4.14877,-2.19725 -3.8469,-2.49912 0.57184,-0.57184 8.74267,3.27026 8.74267,4.11098 0,0.5976 0.32645,0.70507 -4.89577,-1.61186 z M 535,596 c 0.825,-0.53316 1.95,-0.96937 2.5,-0.96937 0.55,0 0.325,0.43621 -0.5,0.96937 -0.825,0.53316 -1.95,0.96937 -2.5,0.96937 -0.55,0 -0.325,-0.43621 0.5,-0.96937 z m -59,-5 c -0.90129,-0.58246 -1.02463,-0.97549 -0.30902,-0.98469 0.65504,-0.008 1.4691,0.43469 1.80902,0.98469 0.7673,1.24153 0.42112,1.24153 -1.5,0 z m 77,-3.5 c 2.475,-1.32529 4.95,-2.40963 5.5,-2.40963 0.55,0 -1.025,1.08434 -3.5,2.40963 -2.475,1.32529 -4.95,2.40963 -5.5,2.40963 -0.55,0 1.025,-1.08434 3.5,-2.40963 z M 459,583 c -0.825,-0.53316 -1.05,-0.96937 -0.5,-0.96937 0.55,0 1.675,0.43621 2.5,0.96937 0.825,0.53316 1.05,0.96937 0.5,0.96937 -0.55,0 -1.675,-0.43621 -2.5,-0.96937 z m 37.5,-5.93676 c -8.19829,-4.03687 -13.06758,-6.9288 -11.75,-6.97845 1.2375,-0.0466 2.25,0.29318 2.25,0.75515 0,0.46197 1.9125,1.45111 4.25,2.19809 2.3375,0.74698 5.23877,1.98021 6.44728,2.74052 1.2085,0.76031 2.5585,1.40346 3,1.42923 1.54598,0.0902 3.82538,1.13335 6.45709,2.95495 3.72733,2.57994 3.32098,2.6941 21.86368,-6.14238 14.99949,-7.14798 21.47086,-10.09855 22.98195,-10.47847 0.275,-0.0691 2.075,-0.96434 4,-1.98934 2.83789,-1.51108 23.53543,-10.95791 39.6965,-18.1184 2.35457,-1.04324 3.38299,-1.11454 3.90451,-0.2707 0.4165,0.67392 0.26783,0.87354 -0.36109,0.48484 -0.58801,-0.36341 -1.22003,-0.25737 -1.40451,0.23565 -0.27079,0.7237 -61.08877,29.30989 -68.33541,32.11961 -1.1,0.4265 -5.41349,2.40018 -9.58554,4.38596 -9.36742,4.45862 -6.8897,4.81061 -23.41446,-3.32626 z M 574,578 c 0.825,-0.53316 1.95,-0.96937 2.5,-0.96937 0.55,0 0.325,0.43621 -0.5,0.96937 -0.825,0.53316 -1.95,0.96937 -2.5,0.96937 -0.55,0 -0.325,-0.43621 0.5,-0.96937 z m -137.5,-5.0448 c -4.4,-2.15954 -6.875,-3.64913 -5.5,-3.31021 2.8923,0.71294 15.99569,7.2616 14.5,7.24665 -0.55,-0.006 -4.6,-1.77689 -9,-3.93644 z m 141.5,3.48977 c 0,-0.74646 10.73516,-5.45934 12.27851,-5.39044 0.67182,0.03 -1.02851,0.96148 -3.77851,2.06997 -2.75,1.10849 -5.4275,2.43395 -5.95,2.94547 -1.04694,1.02494 -2.55,1.24597 -2.55,0.375 z M 473.45366,566.07298 c -5.1406,-2.5381 -7.15788,-3.95283 -5.70366,-4 1.2375,-0.0401 2.25,0.28126 2.25,0.71422 0,0.43295 0.90452,0.85533 2.01004,0.9386 1.10552,0.0833 2.71198,0.85337 3.56992,1.71131 0.85794,0.85794 2.65343,1.83435 3.98997,2.1698 1.33654,0.33545 2.43007,1.01112 2.43007,1.5015 0,1.22865 0.32066,1.34253 -8.54634,-3.03543 z M 593,569.60699 c 0,-0.21616 0.69837,-0.661 1.55194,-0.98855 0.88992,-0.34149 1.29132,-0.17385 0.94098,0.39301 C 594.90566,569.96166 593,570.4169 593,569.60699 Z M 602.30987,558.5 c 0.006,-3.3 0.1923,-4.52944 0.41486,-2.73209 0.22256,1.79735 0.21797,4.49735 -0.0102,6 -0.22818,1.50265 -0.41027,0.0321 -0.40466,-3.26791 z M 458,559.27104 C 446.67863,554.96086 435.32614,548 439.61803,548 c 0.275,0 0.22189,0.45 -0.11803,1 -0.33992,0.55 0.28735,1 1.39393,1 2.40158,0 7.30961,2.04756 8.34076,3.47965 0.40408,0.56119 0.74158,0.6737 0.75,0.25003 0.0191,-0.96118 7.647,2.86537 8.51656,4.27234 0.35032,0.56683 1.12538,0.72873 1.72236,0.35978 0.64782,-0.40038 0.79775,-0.20538 0.37188,0.48369 -0.39244,0.63498 -0.79947,1.11898 -0.90451,1.07556 -0.10504,-0.0434 -0.86598,-0.33592 -1.69098,-0.65001 z m 47,-3.14655 c -5.78118,-2.9665 -20.85329,-9.92103 -39.7855,-18.35771 -11.0393,-4.91939 -14.16224,-7.17303 -6.53937,-4.71908 7.5337,2.42525 9.32487,3.20773 9.32487,4.07362 0,0.48327 0.71438,0.87868 1.58752,0.87868 0.87313,0 4.40387,1.575 7.8461,3.5 3.44222,1.925 6.89211,3.5 7.66641,3.5 0.77431,0 6.69339,2.7 13.1535,6 13.59357,6.94396 12.19335,6.67788 18.96683,3.60421 C 527.78579,549.80982 535.69494,546.14875 545,541.74525 563.23413,533.11618 582.99189,524 583.45979,524 c 0.25932,0 4.60843,-2.02852 9.6647,-4.50782 5.05627,-2.47929 9.40488,-4.29614 9.66359,-4.03744 0.2587,0.25871 -0.69867,1.00303 -2.1275,1.65405 -1.42883,0.65101 -2.36042,1.56786 -2.07021,2.03744 0.29022,0.46957 0.005,0.85377 -0.63315,0.85377 -1.13402,0 -10.46509,4.22149 -40.07831,18.13193 -8.0416,3.77744 -14.9672,6.86807 -15.39023,6.86807 -0.42303,0 -7.19904,3.15 -15.0578,7 -16.39973,8.03421 -15.2305,7.81922 -22.43088,4.12449 z M 434,547.5 c -0.69443,-0.83674 -0.80272,-1.5 -0.24489,-1.5 0.55,0 1.5602,0.675 2.24489,1.5 0.69443,0.83674 0.80272,1.5 0.24489,1.5 -0.55,0 -1.5602,-0.675 -2.24489,-1.5 z m -5.39699,-2.66667 C 428.88627,544.375 429.54148,544 430.05902,544 c 0.51754,0 0.94098,0.375 0.94098,0.83333 0,0.45834 -0.65521,0.83334 -1.45601,0.83334 -0.80081,0 -1.22425,-0.375 -0.94098,-0.83334 z M 422.30987,533.5 c 0.006,-3.3 0.1923,-4.52944 0.41486,-2.73209 0.22256,1.79735 0.21797,4.49735 -0.0102,6 -0.22818,1.50265 -0.41027,0.0321 -0.40466,-3.26791 z m 28.50263,-3.18311 c 0.72187,-0.28887 1.58438,-0.25335 1.91667,0.0789 0.33229,0.33229 -0.25834,0.56864 -1.3125,0.52522 -1.16495,-0.048 -1.4019,-0.28494 -0.60417,-0.60416 z m -8.70448,-3.34236 c -3.51559,-1.66315 -6.11397,-3.30192 -5.77417,-3.64171 0.3398,-0.3398 1.30369,-0.0486 2.14198,0.64712 0.8383,0.69572 1.52417,0.95219 1.52417,0.56992 0,-0.38226 1.18569,0.23764 2.63486,1.37756 1.44917,1.13992 3.22261,2.07258 3.94098,2.07258 0.71837,0 1.58424,0.45 1.92416,1 0.85977,1.39113 0.76997,1.36268 -6.39198,-2.02547 z m -8.31883,-11.71594 c 3.45905,-0.19583 8.85905,-0.19422 12,0.004 3.14094,0.19781 0.31081,0.35803 -6.28919,0.35606 -6.6,-0.002 -9.16987,-0.16382 -5.71081,-0.35965 z M 604,514.60699 c 0,-0.21616 0.69837,-0.661 1.55194,-0.98855 0.88992,-0.34149 1.29132,-0.17385 0.94098,0.39301 C 605.90566,514.96166 604,515.4169 604,514.60699 Z M 453,512.5 c -0.71755,-0.86459 -0.81474,-1.5 -0.22943,-1.5 0.5585,0 1.27447,0.675 1.59106,1.5 0.31658,0.825 0.41982,1.5 0.22943,1.5 -0.19039,0 -0.90637,-0.675 -1.59106,-1.5 z m -29.75,-1.23899 c 3.1625,-0.19845 8.3375,-0.19845 11.5,0 3.1625,0.19845 0.575,0.36082 -5.75,0.36082 -6.325,0 -8.9125,-0.16237 -5.75,-0.36082 z M 622,506.53549 c 0,-0.50534 16.96449,-8.55806 17.88842,-8.49129 0.33637,0.0243 -1.18842,0.99588 -3.38842,2.15905 -5.6659,2.99565 -14.5,6.85355 -14.5,6.33224 z m -226.49292,-2.52404 c -0.35034,-0.56686 0.0511,-0.7345 0.94098,-0.39301 1.73242,0.66479 2.04939,1.38156 0.61096,1.38156 -0.51754,0 -1.21592,-0.44485 -1.55194,-0.98855 z M 387.75,500.43427 c -2.6125,-1.35993 -4.75,-2.69656 -4.75,-2.97028 0,-0.44638 9.89973,4.2296 10.91667,5.15631 1.2381,1.12826 -2.01533,-0.025 -6.16667,-2.18603 z m -8.24292,-4.42282 c -0.35034,-0.56686 0.0511,-0.7345 0.94098,-0.39301 1.73242,0.66479 2.04939,1.38156 0.61096,1.38156 -0.51754,0 -1.21592,-0.44485 -1.55194,-0.98855 z M 643,496.60699 c 0,-0.21616 0.69837,-0.661 1.55194,-0.98855 0.88992,-0.34149 1.29132,-0.17385 0.94098,0.39301 C 644.90566,496.96166 643,497.4169 643,496.60699 Z M 379.5,490 c 0.33992,-0.55 1.06803,-1 1.61803,-1 0.55,0 0.72189,0.45 0.38197,1 -0.33992,0.55 -1.06803,1 -1.61803,1 -0.55,0 -0.72189,-0.45 -0.38197,-1 z m 259,-2 c -1.63041,-0.70061 -1.68751,-0.87242 -0.30902,-0.92971 0.93004,-0.0387 1.9691,0.37971 2.30902,0.92971 0.71066,1.14988 0.67591,1.14988 -2,0 z m -4.5,-2 c -0.90129,-0.58246 -1.02463,-0.97549 -0.30902,-0.98469 0.65504,-0.008 1.4691,0.43469 1.80902,0.98469 0.7673,1.24153 0.42112,1.24153 -1.5,0 z m -239.8653,-2.46803 c 0.84035,-0.84036 7.8653,-3.57235 7.8653,-3.05881 0,0.275 -1.62996,1.18104 -3.62212,2.01342 -3.68947,1.54156 -5.08257,1.88477 -4.24318,1.04539 z m 10.94863,-4.89652 c 0.22917,-0.2005 1.54167,-0.90032 2.91667,-1.55516 2.35727,-1.12265 2.38918,-1.10183 0.55887,0.36454 -1.593,1.27626 -4.84786,2.39128 -3.47554,1.19062 z M 608.25,474.5264 c -3.9875,-1.87096 -7.25,-3.64344 -7.25,-3.93883 0,-0.52227 14.93935,6.01845 15.86835,6.94745 1.21751,1.2175 -2.02063,0.0871 -8.61835,-3.00862 z M 416.08333,473.62718 C 417.11238,472.70641 423,470.00077 423,470.44864 423,471.02462 417.45618,474 416.38299,474 c -0.39398,0 -0.52882,-0.16777 -0.29966,-0.37282 z M 595,468 c -0.90129,-0.58246 -1.02463,-0.97549 -0.30902,-0.98469 0.65504,-0.008 1.4691,0.43469 1.80902,0.98469 0.7673,1.24153 0.42112,1.24153 -1.5,0 z m -6.49292,-2.98855 c -0.35034,-0.56686 0.0511,-0.7345 0.94098,-0.39301 1.73242,0.66479 2.04939,1.38156 0.61096,1.38156 -0.51754,0 -1.21592,-0.44485 -1.55194,-0.98855 z M 577,459.96098 c -3.025,-1.55882 -5.21849,-2.86274 -4.87443,-2.8976 1.00803,-0.10213 11.87443,4.86143 11.87443,5.42401 0,0.87745 -1.31698,0.40213 -7,-2.52641 z m -132.55887,0.59419 C 445.50875,459.69982 446.82125,459 447.3578,459 c 1.27054,0 0.70323,0.4619 -2.3578,1.91971 -2.35727,1.12265 -2.38918,1.10183 -0.55887,-0.36454 z m 5.04191,-2.52772 c 0.26718,-0.43232 1.39343,-1.02339 2.50276,-1.31348 1.10933,-0.2901 1.79835,-0.17374 1.53116,0.25858 -0.26718,0.43232 -1.39343,1.02339 -2.50276,1.31348 -1.10933,0.2901 -1.79835,0.17374 -1.53116,-0.25858 z M 559.25,451.93754 c -10.58017,-5.04802 -14.30473,-7.71423 -5,-3.57923 7.35416,3.26817 17.4485,8.55301 16.25,8.5076 -0.55,-0.0208 -5.6125,-2.2386 -11.25,-4.92837 z m -102.51667,2.93837 c 0.67834,-0.68342 1.48524,-0.99067 1.79313,-0.68278 0.30789,0.30789 -0.24711,0.86705 -1.23333,1.24258 -1.4252,0.54268 -1.54006,0.42782 -0.5598,-0.5598 z m 7.07917,-3.55902 c 0.72187,-0.28887 1.58438,-0.25335 1.91667,0.0789 0.33229,0.33229 -0.25834,0.56864 -1.3125,0.52522 -1.16495,-0.048 -1.4019,-0.28494 -0.60417,-0.60416 z M 472,447.60699 c 0,-0.21616 0.69837,-0.661 1.55194,-0.98855 0.88992,-0.34149 1.29132,-0.17385 0.94098,0.39301 C 473.90566,447.96166 472,448.4169 472,447.60699 Z m 16,-7.23846 c 0,-0.67641 7.13729,-3.56457 7.61884,-3.08302 0.22147,0.22146 -1.40217,1.11162 -3.60809,1.97813 C 489.80484,440.13015 488,440.62735 488,440.36853 Z m 37.41571,-4.29827 c -5.45364,-2.71135 -9.68609,-4.96135 -9.40544,-5 0.70812,-0.0975 14.82991,6.15374 18.48973,8.18479 6.65251,3.69187 0.19119,1.42665 -9.08429,-3.18479 z M 361,420.68709 c 0,-0.1721 1.4625,-1.6346 3.25,-3.25 l 3.25,-2.93709 -2.93709,3.25 C 361.82513,420.77946 361,421.45965 361,420.68709 Z M 659.87244,418.25 c -1.24387,-1.58606 -1.2085,-1.62143 0.37756,-0.37756 0.9625,0.75485 1.75,1.54235 1.75,1.75 0,0.82304 -0.82119,0.29331 -2.12756,-1.37244 z M 369,413.60699 c 0,-0.21616 0.69837,-0.661 1.55194,-0.98855 0.88992,-0.34149 1.29132,-0.17385 0.94098,0.39301 C 370.90566,413.96166 369,414.4169 369,413.60699 Z m 252.44113,-18.16216 c -1.86402,-1.49339 -1.85176,-1.51185 0.30887,-0.46481 1.2375,0.59969 2.25,1.29951 2.25,1.55516 0,0.76522 -0.51861,0.54424 -2.55887,-1.09035 z M 465,358.60699 c 0,-0.21616 0.69837,-0.661 1.55194,-0.98855 0.88992,-0.34149 1.29132,-0.17385 0.94098,0.39301 C 466.90566,358.96166 465,359.4169 465,358.60699 Z M 522.5,340 c -1.26064,-0.54172 -1.44548,-0.85943 -0.5,-0.85943 0.825,0 2.4,0.38674 3.5,0.85943 1.26064,0.54172 1.44548,0.85943 0.5,0.85943 -0.825,0 -2.4,-0.38674 -3.5,-0.85943 z m -5.75,-1.66228 c 0.6875,-0.27741 1.8125,-0.27741 2.5,0 0.6875,0.27741 0.125,0.50439 -1.25,0.50439 -1.375,0 -1.9375,-0.22698 -1.25,-0.50439 z"
         id="path311" />
    </g>
  </g>
</svg>
