<svg width="19" height="21" viewBox="0 0 19 21" fill="none" xmlns="http://www.w3.org/2000/svg">
<path fill-rule="evenodd" clip-rule="evenodd" d="M5.82597 0H12.8171C16.0342 0 18.6431 2.81997 18.6431 6.29738V13.8542C18.6431 17.3316 16.0342 20.1516 12.8171 20.1516H5.82597C2.60887 20.1516 0 17.3316 0 13.8542V6.29738C0 2.81997 2.60887 0 5.82597 0ZM12.8172 18.2628C15.066 18.2628 16.8953 16.2854 16.8953 13.8547V6.29781C16.8953 3.86702 15.066 1.88965 12.8172 1.88965H5.82603C3.57721 1.88965 1.74786 3.86702 1.74786 6.29781V13.8547C1.74786 16.2854 3.57721 18.2628 5.82603 18.2628H12.8172Z" fill="white"/>
<path fill-rule="evenodd" clip-rule="evenodd" d="M4.66089 10.076C4.66089 7.29381 6.74773 5.03809 9.32162 5.03809C11.8955 5.03809 13.9823 7.29381 13.9823 10.076C13.9823 12.8582 11.8955 15.1139 9.32162 15.1139C6.74773 15.1139 4.66089 12.8582 4.66089 10.076ZM6.40875 10.0764C6.40875 11.812 7.71608 13.2251 9.32169 13.2251C10.9273 13.2251 12.2346 11.812 12.2346 10.0764C12.2346 8.33961 10.9273 6.92773 9.32169 6.92773C7.71608 6.92773 6.40875 8.33961 6.40875 10.0764Z" fill="white"/>
<ellipse cx="14.3319" cy="4.65958" rx="0.621052" ry="0.6713" fill="white"/>
</svg>
